<?xml version="1.0" encoding="UTF-8"?><svg xmlns="http://www.w3.org/2000/svg" viewBox="0 0 536 934"><g id="a"><path d="M37.96,40.82c-1.68-.94-3.18-1.42-4.52-1.42-3.35,0-6.35.94-8.98,2.81-2.64,1.87-4.68,4.27-6.13,7.2-1.45,2.93-2.17,5.91-2.17,8.94,0,1.99.62,3.77,1.86,5.35,1.24,1.58,2.84,2.81,4.81,3.69,1.97.88,3.98,1.32,6.03,1.32,3.81,0,6.75-1.06,8.84-3.17,2.08-2.12,3.51-4.53,4.27-7.25.76-2.72,1.47-6.26,2.12-10.62,0-1.01-.6-2.16-1.81-3.47-1.2-1.3-2.65-2.42-4.32-3.37ZM0,0v108h68V0H0ZM57.56,73.73c-.62,1.11-1.46,2.02-2.54,2.73s-2.26,1.07-3.56,1.07-2.55-.46-3.83-1.39c-1.29-.93-2.34-2.15-3.15-3.66-.81-1.51-1.22-3.07-1.22-4.66-2.44,3.09-4.97,5.57-7.59,7.45-2.62,1.87-5.41,2.81-8.37,2.81-2.7,0-5.44-.88-8.23-2.64s-5.07-4.13-6.86-7.1c-1.79-2.98-2.69-6.19-2.69-9.64,0-4.65,1.06-9.21,3.17-13.67,2.12-4.46,4.96-8.09,8.52-10.89,3.56-2.8,7.41-4.2,11.55-4.2,3.12,0,6.03.94,8.72,2.83,2.69,1.89,4.82,4.32,6.4,7.3,1.58,2.98,2.37,6,2.37,9.06,0,1.3-.1,2.6-.29,3.91-.2,1.3-.31,2.12-.34,2.44-.26,1.53-.46,2.88-.59,4.05-.13,1.17-.2,2.44-.2,3.81,0,1.92.28,3.3.85,4.13.57.83,1.42,1.25,2.56,1.25.29,0,.59-.11.9-.34.31-.23.68-.55,1.1-.98.06-.06.25-.24.56-.51.31-.28.59-.46.85-.56,1.01,0,1.73.33,2.17.98.44.65.66,1.69.66,3.12,0,1.11-.31,2.21-.93,3.32Z"/></g><g id="b"><path d="M78.22,0v108h68V0h-68ZM126.9,79.46c-2.49,3.68-5.49,6.36-9.01,8.03-3.52,1.68-6.84,2.51-9.96,2.51-2.18,0-4.43-.36-6.74-1.07-.39,0-.75.08-1.07.24-.33.16-.54.26-.63.29-.65.42-1.3.63-1.95.63-1.53,0-2.53-.82-3-2.47-.47-1.64-.71-4.24-.71-7.79v-4.2l.83-53.12c0-1.46.25-2.6.76-3.42.5-.81,1.41-1.22,2.71-1.22.42,0,.9.16,1.42.49.52.33.96.77,1.32,1.34.36.57.54,1.21.54,1.93,0,2.9-.05,5.99-.15,9.28-.13,5.6-.2,10.79-.2,15.58,1.99-1.2,3.91-2.15,5.76-2.83s3.73-1.03,5.62-1.03c6.02,0,10.56,1.92,13.62,5.76,3.06,3.84,4.59,9.54,4.59,17.09,0,5.63-1.25,10.29-3.74,13.96ZM116.59,53.34c-1.97-.91-3.77-1.37-5.4-1.37-1.73,0-3.61.5-5.66,1.49-2.05.99-3.55,2.14-4.49,3.44-.1,2.7-.15,6.12-.15,10.25,0,4.69.06,7.86.17,9.52.11,1.66.32,2.77.61,3.32.98.52,3.06.78,6.25.78,1.5,0,3.17-.32,5-.95,1.84-.63,3.56-1.5,5.15-2.59,1.59-1.09,2.8-2.27,3.61-3.54.59-1.07,1.06-2.71,1.42-4.91.36-2.2.54-4.29.54-6.27s-.68-3.78-2.05-5.4-3.04-2.87-5-3.78Z"/></g><g id="c"><path d="M156.22,0v108h68V0h-68ZM207.07,74.34c-.46.83-1,1.52-1.64,2.08-.63.55-1.2.83-1.68.83h-2.88c-1.11,0-2.7.06-4.79.2-2.08.13-3.69.2-4.83.2-5.66,0-10.17-1.38-13.53-4.15-3.35-2.77-5.03-7.47-5.03-14.11,0-5.34.87-10.21,2.61-14.62,1.74-4.41,4.29-7.91,7.64-10.5,3.35-2.59,7.32-3.88,11.91-3.88,2.28,0,4.39.56,6.32,1.68,1.94,1.12,3.48,2.67,4.64,4.64,1.16,1.97,1.73,4.16,1.73,6.57,0,1.14-.18,2.3-.54,3.49-.36,1.19-.91,1.78-1.66,1.78-.55,0-1.03-.21-1.44-.63-.41-.42-.9-1.09-1.49-2-.72-1.11-1.41-2.04-2.08-2.81-.67-.76-1.59-1.42-2.76-1.98-1.17-.55-2.62-.83-4.35-.83-2.67,0-5.08.77-7.23,2.32-2.15,1.55-3.82,3.56-5,6.05-1.19,2.49-1.78,5.1-1.78,7.84,0,3.19.6,5.63,1.81,7.32,1.2,1.69,3.04,2.86,5.49,3.52,2.46.65,5.8.98,10.03.98.91,0,1.69-.09,2.34-.27.65-.18,1.4-.46,2.25-.85,1.07-.52,2.02-.86,2.83-1.03.42,0,.93.2,1.51.59s1.11,1.03,1.56,1.9c.46.88.68,2,.68,3.37,0,.72-.23,1.49-.68,2.32Z"/></g><g id="d"><path d="M275.35,53.17c-1.68-1.2-3.43-1.81-5.25-1.81-3.16,0-5.92.72-8.28,2.15-2.36,1.43-4.17,3.41-5.42,5.93-1.25,2.52-1.88,5.4-1.88,8.62,0,2.64.53,4.95,1.59,6.93,1.06,1.99,2.51,3.51,4.37,4.57,1.86,1.06,3.92,1.59,6.2,1.59,2.54,0,4.79-.35,6.76-1.05,1.97-.7,3.53-1.54,4.69-2.51s1.86-1.87,2.12-2.69c.26-.85.43-1.76.51-2.73s.12-2.12.12-3.42v-4.49c0-2.21-.5-4.31-1.51-6.3-1.01-1.99-2.35-3.58-4.03-4.79ZM234,0v108h68V0h-68ZM288.21,29.98l-.1,7.37-.59,31.01-.2,8.45c-.03,4.33-.32,7.59-.85,9.79s-1.64,3.3-3.3,3.3c-.65,0-1.2-.42-1.66-1.27s-.98-2.08-1.56-3.71c-1.07,1.04-2.49,1.93-4.25,2.66s-3.56,1.29-5.42,1.66-3.47.56-4.83.56c-5.83,0-10.24-1.92-13.23-5.76-3-3.84-4.49-9.07-4.49-15.67,0-4.56.89-8.84,2.66-12.84,1.77-4,4.34-7.23,7.69-9.67,3.35-2.44,7.29-3.66,11.82-3.66,1.95,0,3.8.37,5.54,1.12,1.74.75,3.17,1.81,4.27,3.17s1.76,2.93,1.95,4.69l.1-14.01.1-13.92c0-3.42,1.24-5.13,3.71-5.13.94,0,1.63.46,2.05,1.37.42.91.63,2,.63,3.27l-.05,7.23Z"/></g><g id="e"><path d="M352.74,46.8c3.29-1.37,5.53-2.28,6.74-2.73-.88-1.89-2.36-3.27-4.44-4.15s-4.49-1.32-7.23-1.32c-1.53,0-3.42.58-5.66,1.73-2.25,1.16-4.31,2.94-6.2,5.35-1.89,2.41-3.08,5.37-3.56,8.89,2.44-.68,5.22-1.64,8.35-2.88,3.12-1.24,7.13-2.86,12.01-4.88ZM312,0v108h68V0h-68ZM358.92,77.07c-4.41.98-8.76,1.46-13.06,1.46-3.22,0-6.33-.94-9.33-2.81s-5.42-4.42-7.28-7.64-2.78-6.75-2.78-10.6c0-5.5.9-10.37,2.69-14.6,1.79-4.23,4.4-7.53,7.84-9.89,3.43-2.36,7.51-3.54,12.23-3.54,2.51,0,4.99.62,7.45,1.86,2.46,1.24,4.48,3.04,6.08,5.42,1.59,2.38,2.39,5.18,2.39,8.4,0,1.66-.24,3.05-.73,4.17s-1.16,1.83-2,2.12l-29.54,10.55c1.01,3.22,3.06,5.32,6.15,6.3s6.53,1.46,10.3,1.46c1.24,0,2.47-.18,3.71-.54,1.24-.36,2.7-.86,4.39-1.51,1.07-.42,1.96-.75,2.66-.98.7-.23,1.31-.34,1.83-.34,1.2,0,2.11.37,2.71,1.12.6.75.9,1.92.9,3.52,0,3.06-2.21,5.08-6.62,6.05Z"/></g><g id="f"><path d="M390,0v108h68V0h-68ZM442.46,27.93c-.26,1.03-.76,1.54-1.51,1.54-.65,0-1.27-.12-1.86-.37s-1.27-.59-2.05-1.05c-.98-.55-1.78-.96-2.42-1.22-.63-.26-1.34-.39-2.12-.39-3.39,0-5.83,1.94-7.35,5.81-1.51,3.87-2.42,8.5-2.71,13.87h11.52c.29-.03.74-.09,1.34-.17.6-.08,1.1-.12,1.49-.12.85,0,1.55.33,2.12,1,.57.67.85,1.85.85,3.54,0,2.15-.45,3.53-1.34,4.15-.9.62-1.96.93-3.2.93-5.73-.33-9.68-.49-11.87-.49h-1.12c-.03,1.89-.11,4.95-.24,9.18-.2,4.72-.31,8.51-.34,11.38,0,.36.11,1.25.34,2.69.03.26.17,1.28.42,3.05.24,1.77.37,3.62.37,5.54,0,2.73-.9,4.1-2.69,4.1-1.59,0-2.78-.27-3.54-.81s-1.29-1.57-1.56-3.1c-.28-1.53-.42-3.94-.42-7.23,0-1.89.03-4.04.1-6.47.07-2.42.11-4.16.15-5.2.16-3.39.26-6.87.29-10.45,0-.52.03-1.33.1-2.44-2.6.16-4.9.24-6.88.24-.85,0-1.59-.5-2.22-1.51-.63-1.01-.95-2.1-.95-3.27s.34-2.23,1.03-3.27c.68-1.04,1.43-1.56,2.25-1.56l7.03.29h.44c.94-8.3,2.75-15.21,5.42-20.73s6.4-8.28,11.18-8.28c.98,0,2.3.34,3.98,1.03s3.16,1.6,4.44,2.76c1.29,1.16,1.93,2.43,1.93,3.83,0,1.11-.13,2.17-.39,3.2Z"/></g><g id="g"><path d="M468,0v108h68V0h-68ZM520.09,61.98l-.05.68c-.16.88-.42,2.88-.78,6.01-.52,4.39-1.11,7.95-1.76,10.67-.65,2.72-1.85,5.04-3.59,6.96-1.74,1.92-4.22,2.88-7.45,2.88-1.27,0-2.91-.22-4.93-.66s-3.83-1.18-5.44-2.22c-1.61-1.04-2.42-2.43-2.42-4.15,0-1.63.22-2.86.66-3.71.44-.85,1.25-1.27,2.42-1.27.29,0,.56.05.81.15s.48.23.71.39c.81.52,1.82.94,3.03,1.27,1.2.33,3.12.49,5.76.49,1.53,0,2.7-.71,3.52-2.12s1.37-3.12,1.66-5.1c.29-1.99.55-4.62.78-7.91.13-2.28.26-3.96.39-5.03-.36,1.46-1.23,2.77-2.61,3.91-1.38,1.14-2.99,2.01-4.81,2.61s-3.52.9-5.08.9c-5.86,0-10.31-1.8-13.35-5.4-3.04-3.6-4.57-8.94-4.57-16.04,0-4.62.68-8.95,2.05-12.99,1.37-4.04,3.44-7.29,6.23-9.77,2.78-2.47,6.21-3.71,10.28-3.71,3.19,0,6.3,1.07,9.33,3.2,3.03,2.13,5.48,4.77,7.35,7.91,1.87,3.14,2.81,6.13,2.81,8.96l-.93,23.1ZM509.13,30.54c-1.61-1.53-3.78-2.29-6.52-2.29-4.46,0-7.7,1.53-9.72,4.59-2.02,3.06-3.06,7-3.12,11.82,0,4.79,1.06,8.15,3.17,10.08,2.12,1.94,5.13,2.91,9.03,2.91,2.02,0,3.87-.73,5.57-2.2s3.11-3.26,4.25-5.4c1.14-2.13,1.97-4.24,2.49-6.32-.36-2.83-.9-5.35-1.64-7.57-.73-2.21-1.9-4.08-3.52-5.62Z"/></g><g id="h"><path d="M0,118v108h68v-108H0ZM52.95,200.3c0,.2-.02,1.11-.07,2.73-.05,1.63-.39,3-1.03,4.13s-1.52,1.68-2.66,1.68-2.1-.51-2.78-1.54-1.03-2.3-1.03-3.83c0-2.12.2-5.06.59-8.84.39-3.65.59-6.46.59-8.45v-1.12c0-2.6-.29-4.93-.85-6.98-.57-2.05-1.83-3.8-3.78-5.25-1.95-1.45-4.82-2.17-8.59-2.17-1.89,0-3.74.43-5.57,1.29-1.82.86-3.31,1.94-4.47,3.22-1.16,1.29-1.73,2.5-1.73,3.64v22.95c-.03,1.3-.1,2.35-.2,3.15-.1.8-.37,1.49-.83,2.08-.46.59-1.17.88-2.15.88s-1.81-.33-2.61-1c-.8-.67-1.2-2.03-1.2-4.08,0-7.23.15-17.5.44-30.81.26-14.65.39-24.82.39-30.52,0-.78.18-1.67.54-2.66.36-.99.85-1.85,1.46-2.56.62-.72,1.3-1.07,2.05-1.07.81,0,1.51.42,2.1,1.27.59.85.88,1.82.88,2.93v.2c0,2.54-.1,6.64-.29,12.3-.23,5.01-.34,9.26-.34,12.74l-.24,5.91c.29-1.76,1.08-3.34,2.37-4.76,1.29-1.42,2.8-2.51,4.54-3.3,1.74-.78,3.39-1.17,4.96-1.17,7.52,0,12.74,2.28,15.65,6.84,2.91,4.56,4.37,9.98,4.37,16.26l-.49,15.92Z"/></g><g id="i"><path d="M78.22,118v108h68v-108h-68ZM113.91,205.67c-.68.94-1.45,1.42-2.29,1.42-1.2,0-2.16-.38-2.86-1.15-.7-.76-1.23-2.04-1.59-3.83-.26-1.56-.39-4.9-.39-10.01,0-8.46.33-16.14,1-23.02.67-6.88,2.19-10.33,4.57-10.33.98,0,1.62.43,1.93,1.29.31.86.46,2.11.46,3.74l-.39,6.84c-.16,2.31-.31,4.74-.44,7.28-.13,2.54-.2,4.8-.2,6.79,0,2.12.21,5.08.63,8.89.39,3.97.59,6.72.59,8.25,0,1.63-.34,2.91-1.03,3.86ZM113.13,148.64c-1.33,0-2.58-.39-3.74-1.17-1.16-.78-1.73-2.15-1.73-4.1,0-.98.27-1.97.81-2.98.54-1.01,1.2-1.84,2-2.49.8-.65,1.55-.98,2.27-.98,1.33,0,2.49.42,3.47,1.27.98.85,1.46,2.29,1.46,4.35,0,4.07-1.51,6.1-4.54,6.1Z"/></g><g id="j"><path d="M156.22,118v108h68v-108h-68ZM197.41,162.19c-.39,4.36-.59,7.65-.59,9.86l.05,4.44c.06,2.47.1,4.43.1,5.86v1.76c0,8.5-.35,15.09-1.05,19.78-.7,4.69-2.51,8.5-5.44,11.43s-7.55,4.39-13.87,4.39c-1.76,0-3.33-.3-4.71-.9-1.38-.6-2.08-1.98-2.08-4.13,0-1.69.33-2.84,1-3.44.67-.6,1.67-.9,3-.9h1.46c4.52,0,7.89-1.17,10.08-3.52s3.59-5.26,4.17-8.74.9-7.94.93-13.38l.15-28.03c.06-5.6,1.3-8.4,3.71-8.4,1.11,0,1.95.49,2.54,1.46s.94,2.15,1.07,3.52c0,2.18-.18,5.16-.54,8.94ZM194.09,136.11c-1.33,0-2.6-.41-3.81-1.22-1.2-.81-1.81-2.2-1.81-4.15,0-.98.28-1.97.83-2.98.55-1.01,1.24-1.84,2.05-2.49.81-.65,1.61-.98,2.39-.98,1.3,0,2.44.44,3.42,1.32s1.46,2.36,1.46,4.44c0,4.04-1.51,6.05-4.54,6.05Z"/></g><g id="k"><path d="M234,118v108h68v-108h-68ZM284.72,162.28c0,1.27-.76,2.75-2.29,4.44-1.53,1.69-3.73,3.84-6.59,6.45l-2.54,2.34c.46,1.04.93,2.22,1.42,3.54s.81,2.21.98,2.66c1.04,3,2,5.45,2.88,7.37.78,1.82,1.59,3.47,2.44,4.93.72,1.17,1.45,2.6,2.2,4.3.07.16.22.55.46,1.17.24.62.48,1.29.71,2,.23.72.34,1.27.34,1.66,0,1.56-.44,2.88-1.32,3.96s-1.9,1.61-3.08,1.61c-.75,0-1.38-.31-1.88-.93s-.92-1.58-1.25-2.88c0,.13-.64-1.42-1.93-4.64s-3.69-9.54-7.2-18.95l-9.33,11.28c0,2.02.02,3.58.05,4.69l.05,5.22c0,1.3-.37,2.54-1.1,3.71s-1.65,1.76-2.76,1.76c-.85,0-1.55-.29-2.1-.88-.55-.59-.96-1.28-1.22-2.08-.26-.8-.39-1.52-.39-2.17l.05-4.1c.03-1.69.2-3.65.49-5.86.16-1.04.26-2.08.29-3.12l1.42-49.61c.03-.91.24-1.74.61-2.49.37-.75.85-1.33,1.42-1.76.57-.42,1.11-.63,1.64-.63.42,0,.9.2,1.42.61.52.41.96.99,1.32,1.76.36.77.54,1.65.54,2.66,0,5.21-.28,12.24-.83,21.09-.29,4.79-.51,8.87-.66,12.26-.15,3.39-.22,6.85-.22,10.4v.68l18.99-24.8c.49-.75,1.03-1.37,1.64-1.86s1.18-.73,1.73-.73c1.37,0,2.31.35,2.83,1.05.52.7.78,1.83.78,3.39v.49Z"/></g><g id="l"><path d="M312,118v108h68v-108h-68ZM352.89,205.11c-.76,1.04-1.7,1.86-2.81,2.44s-2.1.88-2.98.88c-3.19,0-5.52-1.03-6.98-3.08s-2.18-5.06-2.15-9.03l.63-53.56c0-2.15.29-3.88.88-5.2s1.5-1.98,2.73-1.98c.81,0,1.49.48,2.03,1.44.54.96.81,1.99.81,3.1l-.63,46.92v1.66c0,3.06.22,5.6.66,7.62.44,2.02,1.15,3.03,2.12,3.03.42,0,.78-.1,1.07-.29s.63-.49,1.03-.88.72-.68,1-.85c.28-.18.61-.27,1-.27.88,0,1.55.46,2.03,1.37.47.91.71,1.99.71,3.22s-.38,2.43-1.15,3.47Z"/></g><g id="m"><path d="M390,118v108h68v-108h-68ZM452.43,189.63c-.71,4.07-1.8,6.1-3.25,6.1-.77,0-1.5-.32-2.16-.95-.67-.63-1.2-1.42-1.6-2.37-.4-.94-.6-1.82-.6-2.64,0-1.11.09-2.08.26-2.91s.41-1.75.72-2.76c.34-1.07.6-2.03.77-2.88.17-.85.26-1.87.26-3.08l.05-7.57c0-1.82-.43-3.65-1.3-5.49-.87-1.84-2.12-3.35-3.77-4.54-1.64-1.19-3.56-1.78-5.77-1.78-1.15,0-2.45.32-3.91.95s-2.81,1.52-4.04,2.66c-1.24,1.14-2.12,2.41-2.65,3.81l-.46,19.87.19,1.46.19,1.51c0,1.63-.29,3.03-.88,4.2s-1.32,1.76-2.19,1.76c-1.36,0-2.47-.37-3.32-1.12-.85-.75-1.28-2.15-1.28-4.2l.14-1.03c.25-2.25.37-3.56.37-3.96l.19-14.6c.03-1.92-.31-3.85-1.02-5.79-.71-1.94-1.73-3.53-3.05-4.79-1.32-1.25-2.81-1.88-4.49-1.88-2.29,0-4.09.31-5.39.93-1.3.62-2.22,1.6-2.77,2.93-.54,1.33-.81,3.14-.81,5.42v1.9c0,1.79.09,4.41.28,7.86,0,.59.03,1.37.09,2.34l.84,11.23c0,.94-.22,1.79-.65,2.54-.43.75-.94,1.33-1.51,1.76s-1.03.63-1.37.63c-1.36,0-2.37-.47-3.02-1.42-.65-.94-.98-2.69-.98-5.22v-.49l.05-1.17c.03-.23.05-.6.05-1.12l-.05-7.86c-.03-1.17-.05-2.7-.05-4.59v-7.81c0-3.91.07-6.97.21-9.18.14-2.21.44-3.92.91-5.13.46-1.2,1.16-1.81,2.09-1.81,1.83,0,2.74,1.73,2.74,5.18v.88c.43-1.24,1.15-2.4,2.14-3.49.99-1.09,2.13-1.98,3.42-2.66s2.58-1.03,3.88-1.03c1.64,0,3.49.44,5.53,1.32s3.81,2.25,5.3,4.13c1.49,1.87,2.23,4.21,2.23,7.01.43-2.21,1.4-4.16,2.91-5.83,1.5-1.68,3.23-2.96,5.18-3.86,1.95-.9,3.74-1.34,5.35-1.34,5.42,0,9.63,2.04,12.62,6.13,2.99,4.09,4.49,10.41,4.49,18.97,0,5.83-.36,10.77-1.07,14.84Z"/></g><g id="n"><path d="M468,118v108h68v-108h-68ZM520.7,189.87c-.62,4.3-1.89,6.45-3.81,6.45-.85,0-1.53-.11-2.05-.32-.52-.21-.94-.72-1.27-1.51s-.49-2.03-.49-3.69c0-1.07.08-2.13.24-3.17.16-1.04.41-2.34.73-3.91.36-1.79.62-3.21.78-4.25.16-1.04.24-2.15.24-3.32,0-5.18-.82-9.65-2.47-13.43-1.64-3.78-4.78-5.66-9.4-5.66-1.37,0-2.94.41-4.71,1.22-1.77.81-3.49,1.93-5.15,3.34s-3.01,2.97-4.05,4.66c0,1.11-.03,2.96-.1,5.57-.07,2.47-.1,4.18-.1,5.13,0,1.01.07,1.99.2,2.95.13.96.33,2.14.59,3.54.2,1.04.37,2.12.51,3.25s.22,2.17.22,3.15c0,1.86-.21,3.26-.63,4.2s-1.33,1.42-2.73,1.42-2.52-.39-3.37-1.17-1.24-2.36-1.17-4.74l.2-19.14c-.36-4.62-.54-7.8-.54-9.52v-1.46c0-2.86.28-5.48.83-7.86.55-2.38,1.45-3.56,2.69-3.56,2.47,0,3.71,2.13,3.71,6.4,0,.68-.1,2.03-.29,4.05l-.15,1.27c.72-2.54,2.02-4.72,3.91-6.54,1.89-1.82,3.92-3.2,6.1-4.13s4.04-1.39,5.57-1.39c6.12,0,10.47,2.51,13.04,7.52,2.57,5.01,3.86,11.1,3.86,18.26,0,6.64-.31,12.11-.93,16.41Z"/></g><g id="_ñ"><path d="M0,236v108h68v-108H0ZM20.04,256.41c.88-1.48,2.01-2.65,3.39-3.52,1.38-.86,2.82-1.29,4.32-1.29,1.76,0,3.25.37,4.49,1.1,1.24.73,2.52,1.75,3.86,3.05.91.85,1.66,1.46,2.25,1.86s1.19.59,1.81.59c.88,0,1.57-.2,2.08-.61.5-.41,1.03-1,1.59-1.78.46-.65.85-1.11,1.17-1.39.33-.28.75-.42,1.27-.42.75,0,1.31.3,1.68.9.37.6.56,1.36.56,2.27,0,1.56-.33,3.1-.98,4.61-.65,1.51-1.61,2.76-2.88,3.74s-2.77,1.46-4.49,1.46c-1.04,0-2.08-.32-3.12-.95-1.04-.63-2.29-1.55-3.76-2.76-1.37-1.11-2.45-1.91-3.25-2.42-.8-.5-1.59-.76-2.37-.76-.94,0-1.7.28-2.27.83-.57.55-1.16,1.35-1.78,2.39-.42.68-.77,1.18-1.03,1.49-.26.31-.57.46-.93.46-.78,0-1.46-.37-2.05-1.1s-.88-1.68-.88-2.86c0-1.79.44-3.43,1.32-4.91ZM52.7,321.96c-.62,4.3-1.89,6.45-3.81,6.45-.85,0-1.53-.11-2.05-.32-.52-.21-.94-.72-1.27-1.51-.33-.8-.49-2.03-.49-3.69,0-1.07.08-2.13.24-3.17.16-1.04.41-2.34.73-3.91.36-1.79.62-3.21.78-4.25.16-1.04.24-2.15.24-3.32,0-5.18-.82-9.65-2.47-13.43-1.64-3.78-4.78-5.66-9.4-5.66-1.37,0-2.94.41-4.71,1.22-1.77.81-3.49,1.93-5.15,3.34s-3.01,2.97-4.05,4.66c0,1.11-.03,2.96-.1,5.57-.07,2.47-.1,4.18-.1,5.13,0,1.01.06,1.99.2,2.95.13.96.33,2.14.59,3.54.2,1.04.37,2.12.51,3.25s.22,2.17.22,3.15c0,1.86-.21,3.26-.63,4.2-.42.94-1.33,1.42-2.73,1.42s-2.52-.39-3.37-1.17c-.85-.78-1.24-2.36-1.17-4.74l.2-19.14c-.36-4.62-.54-7.8-.54-9.52v-1.46c0-2.86.28-5.48.83-7.86.55-2.38,1.45-3.56,2.69-3.56,2.47,0,3.71,2.13,3.71,6.4,0,.68-.1,2.03-.29,4.05l-.15,1.27c.72-2.54,2.02-4.72,3.91-6.54,1.89-1.82,3.92-3.2,6.1-4.13,2.18-.93,4.04-1.39,5.57-1.39,6.12,0,10.47,2.51,13.04,7.52,2.57,5.01,3.86,11.1,3.86,18.26,0,6.64-.31,12.11-.93,16.41Z"/></g><g id="o"><path d="M120.13,277.04c-1.69-1.25-3.58-1.88-5.66-1.88-2.57,0-5.06.55-7.47,1.64-2.41,1.09-4.38,2.71-5.91,4.86-1.53,2.15-2.29,4.74-2.29,7.76,0,2.54.62,5.02,1.86,7.45,1.24,2.43,2.85,4.39,4.83,5.91,1.99,1.51,4.04,2.27,6.15,2.27,2.41,0,4.68-.6,6.81-1.81,2.13-1.2,3.85-2.94,5.15-5.2,1.3-2.26,1.95-4.94,1.95-8.03,0-2.9-.48-5.47-1.44-7.71-.96-2.25-2.29-4-3.98-5.25ZM78.22,236v108h68v-108h-68ZM129.14,302.65c-1.87,3.61-4.33,6.43-7.37,8.45-3.04,2.02-6.26,3.03-9.64,3.03s-6.64-1.2-9.67-3.61c-3.03-2.41-5.44-5.46-7.25-9.16-1.81-3.69-2.71-7.33-2.71-10.91,0-5.66.98-10.33,2.95-14.01,1.97-3.68,4.52-6.36,7.67-8.03,3.14-1.68,6.53-2.51,10.18-2.51,3.87,0,7.21,1,10.01,3,2.8,2,4.94,4.85,6.42,8.54,1.48,3.69,2.22,8.03,2.22,13.01,0,4.52-.94,8.59-2.81,12.21Z"/></g><g id="p"><path d="M198.72,266.17c-2.83-2.05-6.75-3.08-11.77-3.08-1.11,0-2.38.18-3.81.54-1.43.36-2.67.87-3.71,1.54-1.04.67-1.56,1.44-1.56,2.32l-.29,12.35c-.07.91-.04,2.86.07,5.83.11,2.98.2,4.99.27,6.03-.03.26.68.44,2.12.54,1.45.1,2.81.15,4.08.15,3.42,0,6.55-.63,9.4-1.88,2.85-1.25,5.13-3.17,6.86-5.76,1.73-2.59,2.59-5.79,2.59-9.59s-1.42-6.93-4.25-8.98ZM156.22,236v108h68v-108h-68ZM207.02,288.41c-1.86,4.22-4.5,7.47-7.93,9.77-3.43,2.29-7.45,3.44-12.04,3.44-1.6,0-3.03-.09-4.3-.27-1.27-.18-2.95-.48-5.03-.9v4c0,2.38.16,5.35.49,8.94.33,3.52.49,6.4.49,8.64,0,1.24-.42,2.22-1.27,2.95-.85.73-1.74,1.1-2.69,1.1-1.33,0-2.29-.36-2.86-1.07-.57-.72-.92-1.72-1.05-3-.13-1.29-.2-3.31-.2-6.08,0-4.82.31-22.4.93-52.73.98-2.21,2.35-4.01,4.13-5.4,1.77-1.38,3.66-2.38,5.66-2.98,2-.6,3.9-.9,5.69-.9,4.79,0,8.89.86,12.3,2.59,3.42,1.73,6.01,4.09,7.79,7.08,1.77,3,2.66,6.36,2.66,10.11,0,5.6-.93,10.51-2.78,14.72Z"/></g><g id="q"><path d="M234,236v108h68v-108h-68ZM286.77,286.88c-.33,8.85-.49,17.14-.49,24.85v10.01c0,.94-.2,1.72-.61,2.32-.41.6-.9,1.04-1.46,1.32-.57.28-1.1.42-1.59.42-1.27,0-2.23-.29-2.88-.88s-.98-1.6-.98-3.03v-.59l.98-18.8.15-8.45c-.36,1.33-1.25,2.62-2.69,3.86-1.43,1.24-3.07,2.24-4.91,3-1.84.77-3.51,1.15-5,1.15-3.74,0-7.01-1.07-9.79-3.2-2.78-2.13-4.91-4.88-6.37-8.25s-2.2-6.84-2.2-10.42c0-4.82.85-9.21,2.54-13.18,1.69-3.97,4.01-7.1,6.96-9.38,2.95-2.28,6.26-3.42,9.94-3.42,2.64,0,5.42.78,8.35,2.34s5.39,3.83,7.37,6.79c1.99,2.96,2.98,6.45,2.98,10.45,0,2.28-.1,6.64-.29,13.09ZM275.71,265.51c-2-1.45-4.06-2.17-6.18-2.17-2.51,0-4.83.65-6.96,1.95-2.13,1.3-3.84,3.14-5.13,5.52-1.29,2.38-1.93,5.09-1.93,8.15,0,2.18.46,4.32,1.37,6.42.91,2.1,2.31,3.83,4.2,5.18,1.89,1.35,4.2,2.03,6.93,2.03,3.09,0,5.53-1.11,7.32-3.34,1.79-2.23,3.04-4.93,3.74-8.11s1.05-6.39,1.05-9.64c-.94-2.54-2.42-4.53-4.42-5.98Z"/></g><g id="r"><path d="M312,236v108h68v-108h-68ZM362.26,276.57c-.42.81-.97,1.45-1.64,1.9-.67.46-1.36.68-2.08.68-.62,0-1.07-.11-1.37-.34-.29-.23-.57-.59-.83-1.07-.39-.75-.92-1.33-1.59-1.73-.67-.41-1.83-.61-3.49-.61h-1.12c-4.95,0-8.49,1.37-10.62,4.1s-3.2,6.93-3.2,12.6v1.71l.49,15.04c0,.55-.12,1.23-.37,2.03-.24.8-.63,1.5-1.17,2.1-.54.6-1.23.9-2.08.9-1.56,0-2.64-.47-3.22-1.42-.59-.94-.88-2.49-.88-4.64,0-1.43.03-2.93.1-4.49.03-.52.05-1.2.05-2.05v-4.59c0-1.82.09-4.33.27-7.52.18-3.19.58-8.77,1.2-16.75.1-1.63.46-2.91,1.1-3.86.63-.94,1.54-1.42,2.71-1.42.65,0,1.26.43,1.83,1.29.57.86.85,2.24.85,4.13,0,2.9-.05,4.67-.15,5.32.65-2.08,1.91-4.03,3.78-5.83s3.91-3.25,6.13-4.32,4.13-1.61,5.76-1.61c2.67,0,5.03.52,7.08,1.56,2.05,1.04,3.08,3.11,3.08,6.2,0,.98-.21,1.87-.63,2.69Z"/></g><g id="s"><path d="M390,236v108h68v-108h-68ZM437.89,308.99c-2.38,2.03-5.15,3.52-8.33,4.47s-5.92,1.42-8.23,1.42c-3.12,0-6.01-.63-8.64-1.88s-3.96-3.62-3.96-7.1c0-.55.16-1.25.49-2.08s.73-1.55,1.22-2.15c.49-.6.98-.9,1.46-.9.16,0,.57.29,1.22.88.85,1.07,1.67,1.88,2.47,2.42s1.7.9,2.71,1.07c1.01.18,2.36.27,4.05.27s3.52-.22,5.49-.66,3.64-.95,5-1.54,2.05-1.06,2.05-1.42c0-.88-.42-1.6-1.27-2.17-.85-.57-1.89-1.02-3.12-1.34-1.24-.33-3.06-.73-5.47-1.22-3.81-.72-6.94-1.47-9.4-2.27-2.46-.8-4.59-2.08-6.4-3.86-1.81-1.77-2.71-4.17-2.71-7.2,0-3.74,1.03-7.02,3.08-9.84,2.05-2.82,4.66-4.98,7.84-6.49s6.37-2.27,9.59-2.27c2.12,0,4.01.42,5.69,1.27,1.68.85,2.98,1.96,3.91,3.34.93,1.38,1.39,2.87,1.39,4.47,0,2.57-.2,4.67-.59,6.3-.39,1.63-1.32,2.44-2.78,2.44-.72,0-1.19-.34-1.42-1.03s-.34-1.74-.34-3.17c0-1.53-.59-2.59-1.76-3.17s-2.93-.88-5.27-.88c-1.63,0-3.43.41-5.42,1.22-1.99.81-3.68,1.87-5.08,3.17-1.4,1.3-2.1,2.65-2.1,4.05s.54,2.6,1.61,3.49c1.07.9,2.41,1.58,4,2.05,1.59.47,3.79.98,6.59,1.54,3.45.68,6.23,1.37,8.35,2.05s3.91,1.75,5.4,3.2c1.48,1.45,2.22,3.39,2.22,5.83,0,3.09-1.19,5.66-3.56,7.69Z"/></g><g id="t"><path d="M468,236v108h68v-108h-68ZM518.33,283.46c-.7.8-1.46,1.2-2.27,1.2l-15.04-.2-.05,4.49c-.1,2.73-.15,5.7-.15,8.89,0,4.52.38,8.09,1.15,10.69.76,2.6,2.24,3.91,4.42,3.91,1.86,0,4.15-.99,6.88-2.98.59-.36.9-.54.93-.54.81,0,1.37.23,1.66.68.29.46.44,1.25.44,2.39,0,1.37-.55,2.82-1.66,4.37-1.11,1.55-2.42,2.86-3.96,3.93s-2.86,1.61-4,1.61c-3.68,0-6.4-1.29-8.18-3.88s-2.88-5.69-3.32-9.3-.69-8.3-.76-14.06c0-4.52-.13-7.93-.39-10.21-.49,0-1.25.03-2.29.1-1.17.07-2.17.1-2.98.1-.46,0-1.02-.2-1.68-.59s-1.25-.94-1.73-1.66c-.49-.72-.73-1.53-.73-2.44s.2-1.77.61-2.56c.41-.8.93-1.43,1.56-1.9.63-.47,1.29-.71,1.98-.71,1.04,0,2.96.1,5.76.29.1-4.04.46-7.88,1.1-11.52.63-3.65,1.86-5.47,3.69-5.47.42,0,.86.2,1.32.61.46.41.84.96,1.15,1.66.31.7.46,1.46.46,2.27,0,3.45-.2,6.58-.59,9.38l-.15,1.22-.44,2c1.17,0,2.56-.02,4.15-.05,1.59-.03,2.82-.06,3.66-.1,2.6-.1,5.21-.15,7.81-.15.94,0,1.63.56,2.05,1.68s.63,2.32.63,3.59c0,1.37-.35,2.45-1.05,3.25Z"/></g><g id="u"><path d="M0,354v108h68v-108H0ZM51.36,426.58c-.03,1.82-.28,3.05-.73,3.69-.46.63-1.25.95-2.39.95-.98,0-1.72-.17-2.22-.51-.5-.34-.87-1.06-1.1-2.15-.23-1.09-.34-2.79-.34-5.1,0-1.66.03-3.01.1-4.05-.55,2.38-1.51,4.54-2.86,6.49-1.35,1.95-2.89,3.48-4.61,4.59-1.73,1.11-3.42,1.66-5.08,1.66-6.41,0-10.73-2.6-12.94-7.79-2.21-5.19-3.32-11.12-3.32-17.8,0-3.39.2-6.81.59-10.28s1.05-6.4,1.98-8.81c.93-2.41,2.14-3.61,3.64-3.61,1.79,0,2.69,1.16,2.69,3.47,0,1.33-.33,3.66-.98,6.98-.46,2.44-.8,4.49-1.03,6.15-.23,1.66-.34,3.32-.34,4.98,0,2.38.24,4.88.73,7.5.49,2.62,1.42,4.92,2.78,6.88,1.37,1.97,3.27,2.95,5.71,2.95,3.03,0,5.54-.81,7.54-2.44,2-1.63,3.88-3.89,5.64-6.79.06-.85.24-4,.54-9.47l.1-2.44.15-13.62c0-1.4.39-2.44,1.17-3.12s1.59-1.03,2.44-1.03c.75,0,1.42.34,2.03,1.03.6.68.9,1.63.9,2.83l-.78,38.87Z"/></g><g id="v"><path d="M78.22,354v108h68v-108h-68ZM131.93,390.84c-.29.83-.89,2.16-1.78,3.98-.9,1.82-2.03,4.04-3.39,6.64l-1.81,3.47c-7.78,18.52-13.31,27.78-16.6,27.78-1.86,0-4-3.3-6.45-9.91-2.44-6.61-5.19-15.48-8.25-26.61-1.04-2.38-1.56-4.49-1.56-6.35,0-1.46.16-2.67.49-3.61.33-.94,1.01-1.42,2.05-1.42,1.33,0,2.29.38,2.88,1.15.59.77,1.16,2.11,1.71,4.03l2.1,6.88c1.4,4.79,2.7,8.95,3.91,12.5,1.2,3.55,2.72,7.39,4.54,11.52.55-.59,1.71-2.68,3.47-6.27,1.76-3.6,4.75-10.26,8.98-20,2.08-4.13,3.66-7.06,4.74-8.76s1.97-2.56,2.69-2.56c.85,0,1.51.51,2,1.54s.73,2.29.73,3.78c0,.65-.15,1.39-.44,2.22Z"/></g><g id="w"><path d="M156.22,354v108h68v-108h-68ZM216.54,417.16c-2.1,4.52-4.85,8.13-8.25,10.82-3.4,2.69-6.94,4.03-10.62,4.03-2.28,0-4.33-1.11-6.15-3.32-1.82-2.21-3.19-5.22-4.1-9.03-.75,2.6-1.86,5-3.32,7.18-1.46,2.18-3.08,3.9-4.86,5.15-1.77,1.25-3.48,1.88-5.1,1.88-3.97,0-6.95-2.31-8.94-6.93-1.99-4.62-3.22-9.45-3.71-14.48s-.73-9.55-.73-13.55c0-3.68.26-6.66.78-8.94.52-2.28,1.13-3.91,1.83-4.88.7-.98,1.38-1.46,2.03-1.46.94,0,1.6.34,1.98,1.03.37.68.56,1.73.56,3.12v.59c0,.78-.02,1.68-.07,2.71s-.07,1.78-.07,2.27c-.1,1.46-.15,2.82-.15,4.05,0,5.21.52,10.35,1.56,15.43,1.04,5.08,2.75,8.71,5.13,10.89,1.76-.16,3.49-1.15,5.2-2.95s3.12-4.08,4.25-6.81,1.7-5.48,1.73-8.25l-.15-2.44c-.03-.65-.11-2.1-.24-4.35-.13-2.25-.2-4.08-.2-5.52,0-.78.16-1.65.49-2.61.33-.96.82-1.78,1.49-2.47.67-.68,1.47-1.03,2.42-1.03s1.64.5,2.1,1.51c.46,1.01.75,2.33.88,3.96.13,1.63.2,3.78.2,6.45v4.93c0,3.74.1,6.79.29,9.13s.68,4.31,1.46,5.91c.78,1.6,2,2.39,3.66,2.39,2.31,0,4.68-.67,7.1-2,2.42-1.33,4.44-3.26,6.05-5.79,1.61-2.52,2.42-5.49,2.42-8.91,0-5.4-.47-9.44-1.42-12.11-.1-.26-.29-.7-.56-1.32-.28-.62-.5-1.24-.68-1.86-.18-.62-.27-1.2-.27-1.76,0-1.69.32-3.06.95-4.1.63-1.04,1.59-1.56,2.86-1.56.78,0,1.55.42,2.29,1.25.75.83,1.2,2.19,1.37,4.08,0,1.04.06,2.07.2,3.08.13,1.01.33,2.36.59,4.05.29,1.69.51,3.14.66,4.35.15,1.2.22,2.43.22,3.66,0,5.18-1.05,10.03-3.15,14.55Z"/></g><g id="x"><path d="M234,354v108h68v-108h-68ZM283.97,430.92c-.73.96-1.62,1.44-2.66,1.44-4.26,0-9.6-5.31-16.02-15.92-.07.2-.2.46-.42.78-.21.33-.51.77-.9,1.32-.75,1.01-2.34,3.26-4.79,6.74-.16,1.5-.59,3-1.27,4.49s-1.53,2.25-2.54,2.25c-1.37,0-2.45-.36-3.25-1.07-.8-.72-1.2-2.02-1.2-3.91,0-1.27.2-2.29.59-3.08s.98-1.69,1.76-2.73c.65-.94,1.94-2.73,3.86-5.37,2.67-3.78,4.36-6.18,5.08-7.23-.88-1.4-2.03-3.63-3.47-6.69-.62-1.27-1.28-2.6-1.98-3.98-.7-1.38-1.41-2.64-2.12-3.78-.55-.65-.97-1.58-1.25-2.78-.28-1.2-.42-2.34-.42-3.42s.29-2.07.88-2.88c.59-.81,1.38-1.22,2.39-1.22.78,0,1.81,1.08,3.08,3.25,1.27,2.17,2.7,4.97,4.3,8.42l3.17,6.79c3.61-6.02,6.61-10.64,8.98-13.87s4.38-4.83,6.01-4.83c1.07,0,1.87.38,2.39,1.15.52.77.78,1.75.78,2.95,0,.59-.16,1.16-.49,1.73-.33.57-.9,1.38-1.71,2.42-4.43,4.33-8.63,9.83-12.6,16.5.62,1.5,1.61,3.36,2.98,5.59,1.37,2.23,2.86,4.19,4.47,5.88,1.61,1.69,3.1,2.54,4.47,2.54.98,0,1.72.33,2.22,1,.5.67.76,1.6.76,2.81,0,2.18-.37,3.75-1.1,4.71Z"/></g><g id="y"><path d="M312,354v108h68v-108h-68ZM366.21,378.09c-.36.72-1.2,2.17-2.54,4.35-.13.16-.24.32-.32.46s-.15.27-.22.37c-.59.91-1.16,1.77-1.71,2.59-1.4,2.12-2.63,4.07-3.69,5.86-1.06,1.79-2.17,3.91-3.34,6.35-.26.55-1.56,3.12-3.91,7.71-4,7.71-7.19,14.27-9.57,19.65-2.38,5.39-3.56,9.61-3.56,12.67,0,1.4-.32,2.71-.95,3.93s-1.42,1.83-2.37,1.83c-.52,0-1.18-.29-1.98-.88s-1.49-1.3-2.08-2.15c-.59-.85-.88-1.61-.88-2.29.03-1.73.72-4.43,2.08-8.11,1.35-3.68,2.74-6.77,4.17-9.28l3.96-7.71c-1.73-3.84-4.95-11.6-9.67-23.29l-3.32-8.2c-.33-.78-.59-1.59-.78-2.44-.2-.85-.29-1.53-.29-2.05.07-1.59.46-2.88,1.2-3.86s1.62-1.46,2.66-1.46c.72,0,1.25.3,1.61.9.36.6.81,1.65,1.37,3.15,1.5,4.26,3.47,9.48,5.91,15.65,2.44,6.17,4.3,10.64,5.57,13.4l14.55-28.22c.78-1.53,1.75-2.73,2.91-3.59,1.16-.86,2.34-1.29,3.54-1.29.65,0,1.18.4,1.59,1.2.41.8.61,1.65.61,2.56,0,.75-.18,1.48-.54,2.2Z"/></g><g id="z"><path d="M390,354v108h68v-108h-68ZM440.7,428.78c-.41.83-.97,1.52-1.68,2.08s-1.5.83-2.34.83c-.65,0-1.38-.08-2.2-.24-.2-.03-.53-.08-1-.15-.47-.07-.92-.1-1.34-.1-1.92,0-3.94.05-6.05.15-.68,0-1.73.02-3.12.07s-2.65.07-3.76.07c-1.66,0-3.03-.09-4.1-.27s-2.01-.66-2.81-1.44-1.2-1.99-1.2-3.61c0-.81.6-2.33,1.81-4.54,1.2-2.21,3.11-5.52,5.71-9.91,2.47-4.13,4.49-7.59,6.05-10.38s2.69-5.12,3.37-7.01c-.1-.06-.6-.1-1.51-.1-1.73,0-4.25.16-7.57.49-.36.03-1.33.11-2.93.24-1.59.13-3.11.2-4.54.2-1.24,0-2.13-.05-2.69-.15s-1.04-.46-1.46-1.07c-.42-.62-.63-1.66-.63-3.12,0-1.24.22-2.48.66-3.74.44-1.25,1.08-1.88,1.93-1.88h14.84c.85,0,1.73-.06,2.66-.2.93-.13,1.49-.21,1.68-.24,1.76-.29,3.19-.44,4.3-.44s1.95.71,2.42,2.12.71,2.92.71,4.52c-.46,2.21-1.12,4.38-1.98,6.49-.86,2.12-1.9,4.27-3.1,6.47s-3.04,5.43-5.52,9.69c-.49.85-1.14,1.96-1.95,3.34-.81,1.38-1.81,3.12-2.98,5.2.91.26,2.13.39,3.66.39,2.28,0,4.67-.28,7.18-.83,2.51-.55,4.56-1.3,6.15-2.25.1-.06.22-.12.37-.17s.27-.07.37-.07c.68,0,1.27.41,1.76,1.22.49.81.85,1.78,1.1,2.91s.37,2.11.37,2.95-.2,1.64-.61,2.47Z"/></g><g id="A"><path d="M33.56,506.96c-.62.36-1.82,2.72-3.61,7.08-1.79,4.36-3.29,8.3-4.49,11.82l3.71.1c2.38.1,4.7.15,6.98.15,2.41,0,4.3-.05,5.66-.15-.98-2.9-2.44-6.43-4.39-10.6l-3.86-8.4ZM0,472v108h68v-108H0ZM54.07,556.62c-1.3,0-2.49-1.19-3.56-3.56s-1.92-4.9-2.54-7.57l-.39-1.37c-.75-2.67-1.32-4.52-1.71-5.54s-.88-1.77-1.46-2.22-1.45-.68-2.59-.68h-17.92c-.68,0-1.19.1-1.51.29-.33.2-.63.57-.9,1.12-.28.55-.66,1.56-1.15,3.03l-3.27,9.42c-.1,1.66-.42,2.98-.95,3.96s-1.12,1.65-1.73,2.03c-.62.37-1.11.56-1.46.56-1.17,0-2.04-.28-2.61-.83-.57-.55-.85-1.56-.85-3.03,0-2.38.55-4.54,1.66-6.49l1.12-3.27c1.2-3.61,2.23-6.56,3.08-8.84-.1-.33-.15-.78-.15-1.37,0-1.53.19-2.75.56-3.66.37-.91,1.08-1.71,2.12-2.39l9.28-21.83c.06-.13.14-.29.22-.46.08-.18.17-.38.27-.61,1.2-2.44,2.29-4.37,3.27-5.79s2-2.12,3.08-2.12c2.41,0,4.63,1.71,6.67,5.13,2.03,3.42,3.78,7.43,5.22,12.04,1.45,4.61,3.08,10.41,4.91,17.41,1.27,4.95,2.26,8.61,2.98,10.99.72,2.38,1.42,3.97,2.1,4.79.13.16.27.33.42.49s.3.34.46.54c.55.65.94,1.16,1.17,1.51.23.36.4.81.51,1.34.11.54.17,1.29.17,2.27,0,3.16-1.5,4.74-4.49,4.74Z"/></g><g id="B"><path d="M123.82,526.49c-1.51-1.38-3.4-2.44-5.66-3.17-2.26-.73-4.48-1.1-6.67-1.1-.65,0-1.33.11-2.03.34-.7.23-1.64.6-2.81,1.12-1.37.59-2.6,1.07-3.71,1.44-1.11.37-2.29.64-3.56.81l-.1,2.34-.1,2.39v2.25c0,5.4.16,9.7.49,12.89l3.17-.24c4.59-.33,8.45-.81,11.57-1.46s5.85-1.97,8.18-3.96c2.33-1.99,3.49-4.92,3.49-8.79,0-1.86-.76-3.47-2.27-4.86ZM111.15,512.3c4-2.47,6.01-4.39,6.01-5.76,0-.52-.71-.93-2.12-1.22s-3.13-.44-5.15-.44c-.98,0-2.27.09-3.88.27s-3.06.48-4.35.9c-1.29.42-1.95.98-1.98,1.66l-.29,7.67c.75,0,1.8-.16,3.15-.49,1.35-.33,4.22-1.19,8.62-2.59ZM78.22,472v108h68v-108h-68ZM127.7,545.17c-2.57,3.52-5.99,6.13-10.25,7.84-4.26,1.71-8.95,2.56-14.06,2.56-.16,0-.43-.04-.81-.12-.37-.08-.71-.12-1-.12-.33,0-.78.15-1.37.44-.26.13-.55.25-.85.37-.31.11-.61.17-.9.17-.68,0-1.46-.2-2.34-.59s-1.64-.98-2.27-1.76-.95-1.71-.95-2.78c0-.26.06-1.78.17-4.57.11-2.78.27-12.93.46-30.44,0-4.33.32-8.3.95-11.91s1.73-5.7,3.3-6.25c2.34-.75,4.86-1.32,7.54-1.71s5.15-.59,7.4-.59c1.4,0,2.88.38,4.44,1.15s2.88,1.86,3.96,3.27,1.61,3.05,1.61,4.91c0,3.52-1.04,6.79-3.12,9.81,3.71,1.43,6.63,3.59,8.76,6.47,2.13,2.88,3.2,6.47,3.2,10.77,0,5.21-1.29,9.57-3.86,13.09Z"/></g><g id="C"><path d="M156.22,472v108h68v-108h-68ZM209,552.25c-2.26,1.45-5.01,2.48-8.25,3.1-3.24.62-6.4.93-9.5.93-6.64,0-12.17-1.69-16.58-5.08-4.41-3.39-6.62-9.38-6.62-17.97,0-3.06.36-6.12,1.07-9.18.72-3.06,1.73-6.48,3.03-10.25.94-2.64,2.42-5.35,4.44-8.15,2.02-2.8,4.38-5.15,7.08-7.06,2.7-1.9,5.47-2.86,8.3-2.86s5.4.64,7.91,1.93c2.51,1.29,4.54,3.19,6.1,5.71s2.34,5.53,2.34,9.01c0,.91-.15,1.92-.46,3.03-.31,1.11-.79,2.06-1.44,2.86-.65.8-1.43,1.2-2.34,1.2-.75,0-1.3-.21-1.66-.63-.36-.42-.59-.96-.71-1.61-.11-.65-.22-1.56-.32-2.73-.13-1.95-.38-3.57-.76-4.86-.37-1.29-1.23-2.39-2.56-3.32-1.33-.93-3.35-1.39-6.05-1.39-3.68,0-6.83,1.71-9.45,5.13-2.62,3.42-4.6,7.38-5.93,11.89-1.33,4.51-2,8.23-2,11.16s.76,5.35,2.29,7.47c1.53,2.12,3.51,3.73,5.93,4.83,2.42,1.11,4.94,1.66,7.54,1.66,2.34,0,4.93-.19,7.76-.56s5.13-.95,6.88-1.73c1.17-1.11,2.04-1.88,2.61-2.32.57-.44.98-.66,1.25-.66,1.04,0,1.88.46,2.51,1.39s.95,2.09.95,3.49c0,2.28-1.13,4.14-3.39,5.59Z"/></g><g id="D"><path d="M271.97,507.96c-3.55-2.21-7.06-3.32-10.55-3.32-1.17,0-2.66.04-4.47.12s-3.17.17-4.08.27c-.52,2.93-.78,6.14-.78,9.62v8.4c0,10.94.36,18.52,1.07,22.75.1.07.42.13.98.2.55.07,1.17.1,1.86.1h6.15c3.19,0,6.49-.61,9.89-1.83s6.27-3.12,8.62-5.69,3.52-5.78,3.52-9.62c0-4.3-1.15-8.32-3.44-12.06s-5.22-6.72-8.76-8.94ZM234,472v108h68v-108h-68ZM285.69,542.94c-3.22,4.22-7.18,7.37-11.87,9.47s-9.15,3.15-13.38,3.15c-3.78,0-6.45-.15-8.01-.44-.36.13-.88.34-1.56.63-.65.29-1.04.44-1.17.44-1.07,0-1.94-.64-2.59-1.93-.65-1.29-1.1-2.85-1.34-4.69s-.33-3.59-.27-5.25l.73-40.28c.03-3.16.74-5.32,2.12-6.49,1.38-1.17,3.05-1.76,5-1.76h7.08c4.2,0,8.66,1.35,13.38,4.05s8.68,6.49,11.89,11.35,4.81,10.34,4.81,16.43-1.61,11.09-4.83,15.31Z"/></g><g id="E"><path d="M312,472v108h68v-108h-68ZM364.77,504.93c-.67,1.17-1.44,1.76-2.32,1.76-14.81-.07-24.61-.18-29.39-.34,0,1.04-.03,3.03-.1,5.96-.07,3.06-.1,5.19-.1,6.4l18.31-.2c1.11,0,1.99.4,2.66,1.2s1,2.04,1,3.74c0,.46-.12,1.07-.37,1.86s-.6,1.46-1.07,2.05-1.05.88-1.73.88c-6.12,0-10.94-.03-14.45-.1-.75-.03-1.59-.05-2.54-.05-.88,0-1.43.05-1.66.15l.34,15.72c2.15,0,4.56.05,7.23.15s4.46.16,5.37.2c5.99.26,10.64.39,13.96.39,2.15,0,3.22,1.89,3.22,5.66,0,1.86-.48,3.19-1.44,4s-2.19,1.22-3.69,1.22c-1.37,0-3.35-.13-5.96-.39-1.86-.2-3.64-.35-5.35-.46-1.71-.11-3.91-.17-6.62-.17-1.24,0-2.7.08-4.39.24-2.67.16-4.36.24-5.08.24-1.27,0-2.29-.58-3.08-1.73s-1.16-2.66-1.12-4.52l.29-21.68c0-.46-.08-.98-.24-1.56-.03-.13-.08-.4-.15-.81s-.1-.81-.1-1.2c0-.81.2-1.73.59-2.73-.16-4.98-.24-10.24-.24-15.77,0-1.69.07-3.12.2-4.27s.48-2.17,1.05-3.03,1.46-1.29,2.66-1.29c.55,0,1.13.05,1.73.15s1,.16,1.2.2c1.37.26,2.46.39,3.27.39l11.67-.05c5.73-.07,9.64-.1,11.72-.1,1.66,0,2.86.07,3.59.22s1.27.53,1.61,1.15.51,1.61.51,2.98c0,1.2-.33,2.39-1,3.56Z"/></g><g id="F"><path d="M390,472v108h68v-108h-68ZM443.02,506.71c-.55.86-1.46,1.29-2.73,1.29-.49,0-2.54-.47-6.15-1.42-.23,0-1.39.1-3.49.29s-7.15.29-15.16.29c-1.89,0-3-.1-3.32-.29-.33,3.09-.5,7.7-.54,13.82.03.16.76.24,2.2.24,1.11,0,2.39-.05,3.86-.15s2.44-.21,2.93-.34l9.18-1.37c.94-.33,1.92-.49,2.93-.49,1.92,0,2.88,1.59,2.88,4.79,0,1.53-.2,2.66-.61,3.39s-.98,1.22-1.71,1.46-1.88.45-3.44.61l-1.17.15-10.11,1.22c-.59.07-1.66.19-3.22.37s-2.78.27-3.66.27l.2,18.07c0,4.56-1.12,6.84-3.37,6.84-1.59,0-2.72-.61-3.37-1.83s-.98-2.92-.98-5.1c0-1.07.11-2.44.34-4.1.13-1.04.2-1.77.2-2.2l.49-34.52c0-2.8.29-5.46.85-7.98s1.65-3.78,3.25-3.78c.78,0,2.02.16,3.71.49s2.95.49,3.76.49h17.97c1.79-.36,3.17-.54,4.15-.54.72,0,1.46.33,2.25.98s1.43,1.46,1.95,2.44.78,1.92.78,2.83c0,1.66-.28,2.92-.83,3.78Z"/></g><g id="G"><path d="M468,472v108h68v-108h-68ZM521.51,532.76c0,1.17-.03,2.83-.1,4.98-.1,1.66-.15,3.34-.15,5.03,0,2.18.08,4.57.24,7.18,0,1.79-.11,3.14-.34,4.05s-.52,1.51-.88,1.81-.85.44-1.46.44c-.65,0-1.2-.22-1.64-.66s-.83-.92-1.17-1.44-.61-.91-.81-1.17c-1.59.78-3.49,1.54-5.69,2.27s-4.32,1.1-6.37,1.1c-7.45,0-13.06-2.44-16.82-7.32s-5.64-11.91-5.64-21.09c0-3.71,1.03-8.14,3.08-13.28s4.91-9.59,8.57-13.35,7.82-5.64,12.48-5.64c2.83,0,5.46.52,7.89,1.56s4.37,2.54,5.83,4.49,2.2,4.23,2.2,6.84c0,1.99-.2,3.47-.61,4.44s-.98,1.46-1.73,1.46c-.2,0-.46-.23-.78-.68s-.65-.94-.98-1.46c-.65-1.11-1.12-1.79-1.42-2.05-3.35-3.52-6.98-5.27-10.89-5.27-2.64,0-5.3,1.29-7.98,3.86s-4.9,5.76-6.64,9.57-2.61,7.41-2.61,10.79c0,4.04.73,7.4,2.2,10.08s3.48,4.68,6.05,5.98,5.55,1.95,8.94,1.95c2.93,0,5.16-.26,6.69-.78s2.57-1.31,3.12-2.37.83-2.51.83-4.37v-5.91c-1.76.23-4.1.34-7.03.34-.75,0-1.51-.22-2.27-.66s-1.4-1.07-1.9-1.88-.76-1.76-.76-2.83c0-1.82.43-3.08,1.29-3.78s1.99-1.05,3.39-1.05c1.01,0,2.49.08,4.44.24.88,0,2.13-.13,3.76-.39,1.59-.29,2.93-.44,4-.44.85,0,1.64.52,2.37,1.56s1.1,2.13,1.1,3.27c0,2.38-.6,3.91-1.81,4.59Z"/></g><g id="H"><path d="M0,590v108h68v-108H0ZM53.48,668.93c0,1.46-.33,2.69-1,3.69-.67.99-1.54,1.49-2.61,1.49-1.37,0-2.34-.52-2.93-1.56-.59-1.04-.86-2.93-.83-5.66l.29-17.82h-9.91c-4.33,0-7.52.03-9.57.1-2.05.07-3.91.18-5.57.34.16,12.63.24,18.88.24,18.75l.05,1.9c-.03.65-.29,1.28-.76,1.88-.47.6-1.03,1.08-1.66,1.44-.63.36-1.18.54-1.64.54-1.33,0-2.22-.66-2.66-1.98s-.66-3.2-.66-5.64c0-.78.05-4.1.15-9.96.06-3.19.1-5.35.1-6.49,0-2.67-.03-6.25-.1-10.74l-.05-8.2c0-5.76.25-10.01.76-12.74.5-2.73,1.49-4.1,2.95-4.1.49,0,.99.32,1.51.95.52.63.96,1.43,1.32,2.39.36.96.54,1.86.54,2.71l-.05,9.72c-.03,2.18-.05,5.39-.05,9.62h24.85c-.13-9.86-.2-16.02-.2-18.46.06-2.34.3-4.13.71-5.35.41-1.22,1.23-1.83,2.47-1.83,1.46,0,2.46.77,2.98,2.29.52,1.53.78,3.96.78,7.28,0,.59-.02,1.11-.05,1.56,0,.75-.02,2.38-.05,4.91-.03,2.52-.05,5.85-.05,9.99.23.46.43,1.03.61,1.71.18.68.28,1.38.32,2.1l-.63,3.22c.26,7.78.39,15.1.39,21.97Z"/></g><g id="I"><path d="M78.22,590v108h68v-108h-68ZM124.53,622.64c-.59.9-1.29,1.57-2.12,2.03-.83.46-1.59.68-2.27.68-.23,0-.55-.15-.95-.44-.41-.29-.82-.44-1.25-.44h-3.47c-.68,7.1-1.03,16.1-1.03,27,0,4.66.18,8.76.54,12.3l3.61-.05c.46-.03,1.12-.05,2-.05.68.52,1.21,1.24,1.59,2.15.37.91.56,1.97.56,3.17,0,.85-.2,1.61-.61,2.29-.41.68-.92,1.21-1.54,1.59-.62.38-1.22.56-1.81.56h-12.26c-.75,0-1.63-.15-2.64-.44-1.01-.29-1.9-.8-2.69-1.51-.78-.72-1.17-1.66-1.17-2.83,0-1.4.34-2.66,1.03-3.78s1.51-1.68,2.49-1.68l4.05.34v-2.2c0-4.65.14-10.72.42-18.19.28-7.47.58-13.44.9-17.9h-2.69c-.94,0-1.73-.07-2.37-.22s-1.18-.54-1.64-1.17c-.46-.63-.68-1.62-.68-2.95v-.2c0-1.95.42-3.34,1.27-4.17.85-.83,2.34-1.25,4.49-1.25l10.94-.05c.42,0,1.25-.13,2.49-.39,1.11-.2,1.77-.29,2-.29.49,0,1.02.29,1.59.88.57.59,1.06,1.26,1.46,2.03.41.77.61,1.41.61,1.93,0,1.27-.29,2.35-.88,3.25Z"/></g><g id="J"><path d="M156.22,590v108h68v-108h-68ZM205.41,632.4c-.07,3.06-.1,5.37-.1,6.93,0,3.42-.23,7.67-.68,12.74-.46,5.08-.93,8.12-1.42,9.13-4.46,8.66-10.76,12.99-18.9,12.99-1.24,0-2.57-.22-4-.66-1.43-.44-2.69-1.25-3.76-2.42s-1.61-2.75-1.61-4.74c0-.81.15-1.66.46-2.54.31-.88.76-1.62,1.37-2.22.6-.6,1.29-.9,2.08-.9.46,0,.89.14,1.29.42.41.28.85.68,1.34,1.2.68.68,1.33,1.21,1.93,1.59.6.38,1.33.56,2.17.56,1.89,0,3.78-.47,5.69-1.42,1.9-.94,3.47-2.21,4.71-3.78,1.24-1.58,1.86-3.26,1.86-5.05,0-2.41.02-5.2.05-8.37.03-3.17.06-5.64.1-7.4.13-7.36.2-13.22.2-17.58,0-1.92.33-3.58,1-4.98.67-1.4,1.7-2.1,3.1-2.1,1.24,0,2.08,1.05,2.54,3.15.46,2.1.68,5.1.68,9.01,0,1.3-.03,3.45-.1,6.45Z"/></g><g id="K"><path d="M234,590v108h68v-108h-68ZM283.16,676.35c-.85,0-1.68-.9-2.51-2.71s-1.78-4.3-2.86-7.5c-.59-1.69-1.73-4.54-3.42-8.54s-3.4-7.85-5.13-11.55c-1.73-3.69-3.03-6.18-3.91-7.45-1.33,1.33-2.9,3.14-4.69,5.42-1.79,2.28-3.26,4.26-4.39,5.96v1.81c0,1.53.08,3.97.24,7.32l.15,2.73.24,6.2c.03.88-.14,1.66-.51,2.34-.37.68-.85,1.2-1.44,1.56s-1.14.54-1.66.54c-1.82,0-3.02-.9-3.59-2.69-.57-1.79-.85-4.43-.85-7.91l.39-15.92c.26-12.63.52-22.3.78-29,.06-1.37.37-2.6.93-3.69.55-1.09,1.42-1.64,2.59-1.64.78,0,1.48.4,2.1,1.2.62.8.93,1.95.93,3.44l-.59,16.31v3.08c0,1.56.03,2.43.1,2.59.68-1.11,1.64-2.39,2.88-3.86,1.5-1.82,2.52-3.19,3.08-4.1.75-1.53,1.41-2.62,1.98-3.27.57-.65,1.34-1.04,2.32-1.17l2.59-3.61c1.17-1.69,2.12-2.98,2.83-3.86.39-.46.99-1.29,1.81-2.49.91-1.37,1.73-2.37,2.44-3s1.73-.97,3.03-1c.33,0,.69.16,1.1.46.41.31.76.8,1.07,1.46.31.67.46,1.49.46,2.47,0,1.46-.21,2.73-.63,3.81s-.97,2-1.64,2.78-1.64,1.79-2.91,3.03l-1.51,1.51c-.81.81-1.59,1.65-2.34,2.51-.75.86-1.43,1.75-2.05,2.66,1.33,2.28,2.86,5.27,4.59,8.98l.44.88,5.22,11.28,1.27,2.73c1.56,3.32,2.8,6.13,3.71,8.42s1.37,4.13,1.37,5.49c0,3.97-1.33,5.96-4,5.96Z"/></g><g id="L"><path d="M312,590v108h68v-108h-68ZM362.7,670.95c-.42.86-.94,1.58-1.56,2.15s-1.2.85-1.76.85c-1.89,0-4.13-.08-6.74-.24-.59-.03-1.74-.08-3.47-.15s-3.35-.1-4.88-.1c-.91,0-1.99.08-3.22.24-.29.03-.85.08-1.68.15s-1.62.1-2.37.1c-.98,0-3.19-.16-6.64-.49-.39,0-.71-.06-.95-.2-.24-.13-.43-.42-.56-.88-.13-.46-.2-1.17-.2-2.15,0-1.4.06-2.9.17-4.49.11-1.59.27-3.35.46-5.27l.29-3.08c0-2.64-.05-5.55-.15-8.74-.1-3.19-.16-5.29-.2-6.3-.26-6.64-.39-11.64-.39-14.99,0-3.58.07-6.27.22-8.08s.46-3.13.93-3.98c.47-.85,1.2-1.27,2.17-1.27.59,0,1.18.27,1.78.81s1.1,1.24,1.49,2.1c.39.86.59,1.77.59,2.71,0,1.5-.1,3.17-.29,5.03l-.2,2.29c0,6.25.03,10.94.1,14.06l.59,22.02c1.2.03,2.95.11,5.22.24,5.53.26,9.81.39,12.84.39.23,0,.85-.06,1.86-.2.36-.06,1.64-.24,3.86-.54.91.03,1.69.61,2.34,1.73s.98,2.4.98,3.83c0,.75-.21,1.55-.63,2.42Z"/></g><g id="M"><path d="M390,590v108h68v-108h-68ZM448.07,631.08c-.2,3.45-.33,6.17-.39,8.15l-.83,31.05c0,.85-.19,1.56-.56,2.15s-.78,1.03-1.22,1.32-.79.44-1.05.44-.78-.17-1.56-.51-1.52-.93-2.22-1.76-1.05-1.93-1.05-3.3c0-.75.07-1.48.22-2.2.15-.72.37-1.56.66-2.54.03-.2.16-.68.39-1.46s.34-1.51.34-2.2l.49-27.83c-.46.59-.99,1.82-1.61,3.71-.1.23-.31.8-.63,1.71-.33.91-.68,1.66-1.07,2.25l-1.76,3.27-2.69,4.93c-1.92,3.58-3.5,6.4-4.74,8.45s-2.51,3.78-3.83,5.2-2.58,2.11-3.78,2.08c-1.11,0-2.56-1.65-4.35-4.96-1.79-3.3-3.66-7.09-5.62-11.35l-5.81-12.6c-.07.75-.1,2.08-.1,4,0,2.02.1,5.66.29,10.94.2,5.66.29,9.78.29,12.35.26,1.66.44,2.69.54,3.08s.15.6.15.63c0,4.92-1.06,7.37-3.17,7.37-1.14,0-1.99-.26-2.56-.78-.57-.52-.94-1.2-1.1-2.05-.16-.85-.24-1.92-.24-3.22,0-.75.07-1.84.2-3.27.03-.36.07-.77.1-1.25.03-.47.05-.98.05-1.54.1-4.69.15-8.98.15-12.89.13-9.7.3-16.75.51-21.14s.68-7.75,1.42-10.06c.73-2.31,1.9-3.47,3.49-3.47.91,0,1.68.55,2.29,1.64.62,1.09.93,2.25.93,3.49v.49c.39,3.03,2.18,8.25,5.37,15.67,1.14,2.6,2.73,6.02,4.79,10.25,2.05,4.23,3.4,6.74,4.05,7.52.49,0,1.01-.29,1.56-.88s1.33-1.69,2.34-3.32c.85-1.43,3.74-7.45,8.69-18.07,3-6.45,4.82-10.33,5.47-11.67.23-1.17.72-2.25,1.46-3.25.75-.99,1.46-1.49,2.15-1.49,1.27,0,2.25.5,2.95,1.51.7,1.01,1.05,2.38,1.05,4.1,0,3-.15,6.75-.44,11.28Z"/></g><g id="N"><path d="M468,590v108h68v-108h-68ZM520.97,637.82c-.44,6.2-1.12,14.14-2.03,23.8l-.15,1.56v1.27c-.07,2.12-.23,3.91-.49,5.37s-.8,2.69-1.61,3.69c-.81.99-2,1.49-3.56,1.49-.59,0-1.2-.29-1.86-.88s-1.09-1.14-1.32-1.66c-3.81-4.75-7.54-10.25-11.21-16.48-3.66-6.23-6.75-12.31-9.25-18.24-.13,2.28-.2,6.8-.2,13.57,0,2.73,0,4.85-.02,6.35-.02,1.5-.02,2.67-.02,3.52-.03.85-.05,2.04-.05,3.56,0,3.09-.27,5.38-.81,6.86-.54,1.48-1.42,2.22-2.66,2.22-1.33,0-2.23-.38-2.69-1.15-.46-.76-.68-1.91-.68-3.44,0-.59.03-1.63.1-3.12l.2-16.5c.23-4.69.37-8.24.42-10.64.05-2.41.07-5,.07-7.76,0-.81-.02-1.5-.05-2.05-.1-3.22-.15-6.14-.15-8.74,0-.72.12-1.57.37-2.56.24-.99.59-1.85,1.05-2.56.46-.72.99-1.07,1.61-1.07,1.73,0,3.04.84,3.96,2.51.91,1.68,1.66,4.01,2.25,7.01.94,4.62,2.89,9.84,5.83,15.65s5.96,10.99,9.03,15.53,4.88,6.81,5.4,6.81c.16,0,.31-.59.44-1.76s.3-4.51.51-10.01c.21-5.5.5-14.36.85-26.56.07-2.77.2-4.86.39-6.27s.55-2.46,1.07-3.12c.52-.67,1.29-1,2.29-1,.94,0,1.66.11,2.15.34.49.23.85.74,1.1,1.54.24.8.37,2.04.37,3.74,0,6.61-.22,13.01-.66,19.21Z"/></g><g id="_Ñ"><path d="M0,708v108h68v-108H0ZM19.94,724.94c.88-1.48,2.01-2.64,3.39-3.49,1.38-.85,2.82-1.27,4.32-1.27,1.76,0,3.25.36,4.47,1.07,1.22.72,2.51,1.73,3.88,3.03.91.85,1.66,1.46,2.25,1.86s1.19.59,1.81.59c.88,0,1.57-.2,2.08-.61.5-.41,1.03-1,1.59-1.78.46-.65.85-1.12,1.17-1.42.33-.29.75-.44,1.27-.44.75,0,1.31.31,1.68.93.37.62.56,1.38.56,2.29,0,1.56-.33,3.11-.98,4.64-.65,1.53-1.61,2.79-2.88,3.78-1.27.99-2.77,1.49-4.49,1.49-1.04,0-2.09-.33-3.15-.98-1.06-.65-2.3-1.58-3.74-2.78-1.33-1.11-2.41-1.92-3.22-2.44-.81-.52-1.61-.78-2.39-.78-.94,0-1.7.29-2.27.85-.57.57-1.16,1.38-1.78,2.42-.42.68-.77,1.19-1.03,1.51-.26.33-.57.49-.93.49-.78,0-1.46-.38-2.05-1.15-.59-.76-.88-1.73-.88-2.91,0-1.79.44-3.43,1.32-4.91ZM52.97,766.64c-.44,6.2-1.12,14.14-2.03,23.8l-.15,1.56v1.27c-.07,2.12-.23,3.91-.49,5.37-.26,1.46-.8,2.69-1.61,3.69-.81.99-2,1.49-3.56,1.49-.59,0-1.2-.29-1.86-.88-.65-.59-1.09-1.14-1.32-1.66-3.81-4.75-7.54-10.25-11.21-16.48-3.66-6.23-6.75-12.31-9.25-18.24-.13,2.28-.2,6.8-.2,13.57,0,2.73,0,4.85-.02,6.35-.02,1.5-.02,2.67-.02,3.52-.03.85-.05,2.04-.05,3.56,0,3.09-.27,5.38-.81,6.86-.54,1.48-1.42,2.22-2.66,2.22-1.33,0-2.23-.38-2.69-1.15-.46-.76-.68-1.91-.68-3.44,0-.59.03-1.63.1-3.12l.2-16.5c.23-4.69.37-8.24.42-10.64.05-2.41.07-5,.07-7.76,0-.81-.02-1.5-.05-2.05-.1-3.22-.15-6.14-.15-8.74,0-.72.12-1.57.37-2.56.24-.99.59-1.85,1.05-2.56.46-.72.99-1.07,1.61-1.07,1.73,0,3.04.84,3.96,2.51.91,1.68,1.66,4.01,2.25,7.01.94,4.62,2.89,9.84,5.83,15.65,2.95,5.81,5.96,10.99,9.03,15.53s4.87,6.81,5.4,6.81c.16,0,.31-.59.44-1.76.13-1.17.3-4.51.51-10.01.21-5.5.5-14.36.85-26.56.06-2.77.2-4.86.39-6.27s.55-2.46,1.07-3.12c.52-.67,1.29-1,2.29-1,.94,0,1.66.11,2.15.34.49.23.85.74,1.1,1.54.24.8.37,2.04.37,3.74,0,6.61-.22,13.01-.66,19.21Z"/></g><g id="O"><path d="M122.99,743.45c-2.49-1.76-5.31-2.64-8.47-2.64-3.58,0-6.95.76-10.11,2.27-3.16,1.51-5.71,3.79-7.64,6.84-1.94,3.04-2.91,6.75-2.91,11.11,0,3.48.85,6.93,2.54,10.35,1.69,3.42,3.92,6.21,6.69,8.37,2.77,2.17,5.66,3.25,8.69,3.25,3.39,0,6.53-.8,9.45-2.39,2.91-1.59,5.26-3.96,7.03-7.08,1.77-3.12,2.66-6.85,2.66-11.18s-.7-8.12-2.1-11.38c-1.4-3.25-3.34-5.76-5.83-7.52ZM78.22,708v108h68v-108h-68ZM133.44,777.72c-2.26,4.62-5.28,8.22-9.06,10.79-3.78,2.57-7.83,3.86-12.16,3.86s-8.39-1.5-12.18-4.52c-3.79-3.01-6.81-6.84-9.06-11.5-2.25-4.65-3.37-9.29-3.37-13.92.1-7.1,1.37-12.95,3.81-17.55,2.44-4.61,5.62-7.97,9.52-10.08,3.91-2.12,8.19-3.17,12.84-3.17,4.95,0,9.15,1.21,12.6,3.64,3.45,2.43,6.05,5.91,7.81,10.45s2.64,9.99,2.64,16.33c0,5.83-1.13,11.05-3.39,15.67Z"/></g><g id="P"><path d="M200.03,744.01c-2.02-1.71-5.06-2.56-9.13-2.56-1.79,0-3.96.33-6.52,1-2.56.67-4.13,1.36-4.71,2.08,0,.1-.07.94-.22,2.51-.15,1.58-.35,6.47-.61,14.67.98.29,1.81.51,2.51.66.7.15,1.51.22,2.42.22,3.32,0,6.46-.46,9.42-1.37,2.96-.91,5.35-2.25,7.15-4.03,1.81-1.77,2.71-3.88,2.71-6.32,0-2.86-1.01-5.15-3.03-6.86ZM156.22,708v108h68v-108h-68ZM205.55,761.86c-2.34,3.61-5.64,6.3-9.89,8.06s-9.25,2.64-15.01,2.64c-.49,0-1.06-.1-1.71-.29.03.33.02.93-.05,1.81-.1,1.5-.14,3.19-.12,5.08.02,1.89.15,4.82.42,8.79,0,1.43-.35,2.38-1.05,2.86-.7.47-1.42.71-2.17.71-1.17,0-2.08-.13-2.71-.39-.63-.26-1.15-1.15-1.54-2.66s-.42-3.96-.1-7.35l.98-10.25c-.2-.36-.38-.88-.56-1.56-.18-.68-.27-1.22-.27-1.61,0-.91.13-2.15.39-3.71.29-1.53.44-2.91.44-4.15v-5.52c0-3.87.1-7.1.29-9.69s.63-4.71,1.32-6.37,1.69-2.52,3.03-2.59c.36,0,.81.38,1.37,1.12.1.1.28.29.56.59.28.29.53.44.76.44.85-.85,1.99-1.69,3.42-2.54,1.43-.85,2.99-1.53,4.66-2.05,1.68-.52,3.28-.75,4.81-.68,5.96,0,10.16,1.33,12.6,3.98,2.44,2.65,3.66,6.58,3.66,11.79s-1.17,9.96-3.52,13.57Z"/></g><g id="Q"><path d="M275.89,739.76c-2.77-2.21-5.66-3.32-8.69-3.32-3.42,0-6.58.85-9.47,2.56-2.9,1.71-5.21,4.2-6.93,7.47-1.73,3.27-2.59,7.14-2.59,11.6s.69,7.96,2.08,11.08c1.38,3.12,3.3,5.53,5.76,7.2,2.46,1.68,5.28,2.51,8.47,2.51,4,0,7.58-.86,10.74-2.59-2.44-3.16-4.69-5.68-6.74-7.57v-2.39c0-1.46.24-2.64.71-3.54.47-.89,1.08-1.34,1.83-1.34,1.56,0,3.01.63,4.35,1.88,1.33,1.25,2.78,2.91,4.35,4.96.55.75.98,1.3,1.27,1.66l.68.73c2.25-3.19,3.37-7.05,3.37-11.57,0-3.65-.84-7.23-2.51-10.74s-3.9-6.38-6.67-8.59ZM234,708v108h68v-108h-68ZM293.83,795.37c-.5.75-1.26,1.12-2.27,1.12-.81,0-1.67-.17-2.56-.51s-1.57-.95-2.03-1.83c-.39-.72-1.2-2.08-2.44-4.1s-2.62-4.18-4.15-6.49c-2.25,1.56-4.67,2.73-7.28,3.52s-5.27,1.17-8.01,1.17c-4.88,0-9.11-1.25-12.67-3.74s-6.29-6.05-8.18-10.69c-1.89-4.64-2.83-10.13-2.83-16.48,0-5.73,1.18-10.86,3.54-15.41,2.36-4.54,5.49-8.08,9.4-10.62s8.06-3.81,12.45-3.81,8.48,1.5,12.35,4.49c3.87,3,6.97,6.81,9.28,11.45s3.47,9.27,3.47,13.89c0,8.04-1.76,14.67-5.27,19.87,2.18,3.19,4.05,6.21,5.62,9.06,1.56,2.85,2.34,4.84,2.34,5.98,0,1.33-.25,2.38-.76,3.12Z"/></g><g id="R"><path d="M351.91,741.59c-1.4-.91-3.09-1.37-5.08-1.37-1.76,0-3.77.34-6.03,1.03s-4.22,1.61-5.86,2.78-2.48,2.46-2.51,3.86l-.05,1.51c-.07.65-.1,1.16-.1,1.51,0,1.69.13,3.32.39,4.88,2.67-.52,5.69-1.31,9.06-2.37,3.37-1.06,6.26-2.24,8.67-3.54,2.41-1.3,3.61-2.54,3.61-3.71,0-2.15-.7-3.68-2.1-4.59ZM312,708v108h68v-108h-68ZM365.58,787.27c-.13,1.51-.45,2.78-.95,3.81s-1.31,1.54-2.42,1.54c-1.24,0-2.08-.51-2.51-1.54s-.66-2.47-.66-4.32v-1.22c0-1.56.02-2.75.05-3.56l.05-3.86c0-1.43-.04-2.67-.12-3.71-.08-1.04-.24-2.25-.46-3.61-.78-1.66-2.07-3.02-3.86-4.08-1.79-1.06-3.77-1.83-5.93-2.32s-4.26-.73-6.27-.73c-.91,0-2.38.27-4.42.81s-3.65,1.12-4.86,1.73c.07,2.93.29,6.3.66,10.11s.82,6.84,1.34,9.08c0,1.53-.38,2.74-1.15,3.64-.76.9-1.78,1.34-3.05,1.34-.94,0-1.77-.59-2.49-1.76s-1.07-2.46-1.07-3.86c0-.46.07-1.24.2-2.34.13-1.04.2-1.79.2-2.25,0-.81-.13-2.34-.39-4.59-.36-3.32-.65-6.68-.88-10.08-.23-3.4-.34-7.22-.34-11.45,0-3.16.19-6.03.56-8.62s1.13-4.48,2.27-5.69c5.66-5.57,11.56-8.35,17.68-8.35,2.31,0,4.48.5,6.52,1.49,2.03.99,3.69,2.51,4.96,4.57s1.9,4.59,1.9,7.62c0,2.73-.59,5.05-1.76,6.93-1.17,1.89-2.69,3.42-4.54,4.59,3.35,1.14,5.9,2.84,7.64,5.1,1.74,2.26,2.9,4.95,3.47,8.06.57,3.11.85,6.94.85,11.5,0,2.51-.07,4.52-.2,6.03Z"/></g><g id="S"><path d="M390,708v108h68v-108h-68ZM438.21,784.34c-2.51,2.6-5.42,4.53-8.74,5.79-3.32,1.25-6.14,1.88-8.45,1.88-3.25,0-6.22-.71-8.89-2.12s-4-4.21-4-8.37c0-.65.15-1.5.46-2.56.31-1.06.71-1.99,1.2-2.78.49-.8,1.01-1.2,1.56-1.2.07,0,.23.16.49.49.26.33.5.72.73,1.17.98,1.92,1.86,3.3,2.66,4.13s1.65,1.34,2.56,1.54,2.31.29,4.2.29,3.97-.4,6.15-1.2c2.18-.8,4.01-1.78,5.49-2.95s2.22-2.28,2.22-3.32-.47-1.89-1.42-2.64c-.94-.75-2.15-1.38-3.61-1.9-1.46-.52-3.47-1.14-6.01-1.86-3.91-1.11-7.11-2.16-9.62-3.17-2.51-1.01-4.66-2.46-6.47-4.35-1.81-1.89-2.71-4.3-2.71-7.23,0-4.43,1.05-8.31,3.15-11.65,2.1-3.34,4.79-5.89,8.08-7.67,3.29-1.77,6.64-2.66,10.06-2.66,2.15,0,4.07.51,5.76,1.54s3,2.38,3.93,4.08c.93,1.69,1.39,3.52,1.39,5.47,0,2.47-.22,4.54-.66,6.2s-1.33,2.49-2.66,2.49c-.91,0-1.49-.38-1.73-1.15-.24-.76-.37-1.9-.37-3.39,0-2.15-.59-3.66-1.78-4.54s-2.92-1.32-5.2-1.32c-1.63,0-3.56.57-5.79,1.71-2.23,1.14-4.14,2.61-5.74,4.42s-2.39,3.65-2.39,5.54c0,1.24.5,2.27,1.49,3.1s2.24,1.5,3.74,2c1.5.5,3.6,1.1,6.3,1.78,3.87.98,7.02,1.93,9.45,2.86s4.52,2.35,6.27,4.27c1.76,1.92,2.64,4.44,2.64,7.57,0,3.87-1.25,7.11-3.76,9.72Z"/></g><g id="T"><path d="M468,708v108h68v-108h-68ZM520.48,739.83c-.41.98-.93,1.82-1.56,2.54-.63.72-1.28,1.07-1.93,1.07-.49,0-1.24-.34-2.25-1.03-.49-.36-.92-.63-1.29-.81-.37-.18-.74-.27-1.1-.27-3.35,0-5.83.11-7.42.34l1.42,39.79c.46,2.67.75,4.57.88,5.71-.03,1.27-.13,2.21-.29,2.81-.16.6-.48,1.04-.95,1.32s-1.23.42-2.27.42c-1.27,0-2.22-.28-2.86-.83-.63-.55-1.06-1.33-1.27-2.32-.21-.99-.32-2.32-.32-3.98l.05-1.46c.03-.33.05-.8.05-1.42l-1.32-39.31c-.75.07-1.71.2-2.88.39-3.48.49-6.05.73-7.71.73-1.53,0-2.67-.31-3.42-.93-.75-.62-1.12-1.59-1.12-2.93,0-2.51.55-4.26,1.66-5.25,1.11-.99,2.51-1.49,4.2-1.49l20.56-.2,7.76-.49c1.2,0,2.17.49,2.91,1.46s1.1,2.18,1.1,3.61c0,.68-.2,1.51-.61,2.49Z"/></g><g id="U"><path d="M0,826v108h68v-108H0ZM53.34,855.66c-.03.13-.05.24-.05.34l-.2,2.05c-.65,3.03-1.2,7.53-1.66,13.5-.46,5.97-.68,11.87-.68,17.7,0,1.99.08,4.03.24,6.13.16,2.1.26,3.31.29,3.64.29,3.16.44,5.53.44,7.13,0,1.17-.38,2.11-1.15,2.81-.77.7-1.78,1.05-3.05,1.05-1.14,0-1.99-.54-2.54-1.61-.55-1.07-.86-2.88-.93-5.42-1.17,1.66-2.6,3.07-4.27,4.22-1.68,1.16-3.39,2.03-5.13,2.61-1.74.59-3.31.88-4.71.88-5.7,0-9.68-2.97-11.94-8.91-2.26-5.94-3.39-13.13-3.39-21.56v-1.51c0-7.06.4-13.61,1.2-19.63.8-6.02,2.42-9.03,4.86-9.03,1.76,0,2.64,1.43,2.64,4.3,0,1.89-.15,4.27-.44,7.15s-.46,4.57-.49,5.05c-.62,5.63-.93,9.59-.93,11.87,0,6.61.64,12.1,1.93,16.48,1.29,4.38,3.85,6.57,7.69,6.57s6.62-.98,8.91-2.95c2.29-1.97,3.54-4.7,3.74-8.18l1.51-24.56c.16-4.07.46-7.3.9-9.69s1.03-4.12,1.78-5.18c.75-1.06,1.69-1.59,2.83-1.59.75,0,1.38.55,1.88,1.66.5,1.11.76,2.51.76,4.2,0,.2-.02.36-.05.49Z"/></g><g id="V"><path d="M78.22,826v108h68v-108h-68ZM134.37,858.37c-3.03,5.31-7.54,13.83-13.53,25.56-5.99,11.74-9.72,19.34-11.18,22.83-.52,1.04-.94,1.78-1.27,2.22-.33.44-.84.8-1.54,1.07-.7.28-1.7.42-3,.42-.46,0-1.93-4.09-4.42-12.28-2.49-8.19-4.85-16.67-7.08-25.44-2.23-8.77-3.34-14.33-3.34-16.67,0-1.43.16-2.66.49-3.69.33-1.03,1.06-1.54,2.2-1.54.68,0,1.39.37,2.12,1.1s1.23,1.62,1.49,2.66c1.37,8.07,5.11,22.64,11.23,43.7.29-.68,1.82-3.86,4.59-9.52l8.3-17.14c.55-1.04,1.59-3.14,3.12-6.3,2.44-5.01,4.48-8.9,6.13-11.67,1.64-2.77,3.12-4.15,4.42-4.15.29,0,.63.18,1,.54.37.36.69.9.95,1.61.26.72.39,1.58.39,2.59,0,1.07-.36,2.44-1.07,4.1Z"/></g><g id="W"><path d="M156.22,826v108h68v-108h-68ZM218.74,856.51c-.24.52-.55,1.03-.9,1.54-.36.5-.63.89-.83,1.15-1.92,3.16-3.74,7.21-5.44,12.16-1.71,4.95-3.67,12.35-5.88,22.22-.94,4.39-2.05,8.25-3.32,11.57s-2.82,4.98-4.64,4.98c-.88,0-1.6-.38-2.15-1.15-.55-.76-.98-1.73-1.27-2.91s-.62-2.8-.98-4.88l-.24-1.32c-.91-4.75-1.57-8.45-1.98-11.08-.41-2.64-.79-5.31-1.15-8.01-.42-3.06-.85-5.79-1.27-8.2-.68,1.92-1.52,4.69-2.51,8.3-.99,3.61-1.6,5.83-1.83,6.64-.23.81-.76,2.76-1.59,5.83-.83,3.08-1.57,5.64-2.22,7.69-.59,1.66-1.48,3.74-2.69,6.23-1.2,2.49-2.18,3.74-2.93,3.74-2.31,0-3.76-1.69-4.35-5.08-.72-5.11-1.58-10.27-2.59-15.48-1.01-5.21-2.33-11.75-3.96-19.63-.36-1.63-.68-3.12-.95-4.49-.28-1.37-.53-2.6-.76-3.71-.26-1.2-.49-2.41-.68-3.61-.2-1.2-.29-2.18-.29-2.93,0-.65.15-1.43.44-2.34.29-.91.7-1.7,1.22-2.37.52-.67,1.11-1,1.76-1,.85,0,1.55.54,2.12,1.61.57,1.07,1.01,2.37,1.32,3.88.31,1.51.64,3.49,1,5.93.46,2.77.73,4.39.83,4.88.59,2.73,1.38,5.81,2.39,9.23.85,2.77,1.46,5.1,1.86,7.01s.59,4.01.59,6.32c0,1.66.29,3.27.88,4.83l2.05-6.15,1.61-5.08c2.64-8.3,4.82-14.71,6.54-19.24,1.73-4.52,3.16-6.79,4.3-6.79.81,0,1.54.91,2.17,2.73.63,1.82,1.17,4.04,1.61,6.67.44,2.62.97,6.18,1.59,10.67.36,2.8.94,6.09,1.76,9.86.68,3.61,1.12,6.09,1.32,7.42l2.93-10.5c1.79-7.06,4.52-15.61,8.2-25.63l.68-1.86c.85-2.25,1.63-4,2.34-5.27.72-1.27,1.53-1.9,2.44-1.9.68,0,1.32.29,1.9.85.59.57,1.05,1.29,1.39,2.17s.51,1.73.51,2.54-.12,1.43-.37,1.95Z"/></g><g id="X"><path d="M234,826v108h68v-108h-68ZM282.77,909.66c-.37.73-1.02,1.1-1.93,1.1-1.92,0-3.61-.72-5.05-2.17s-2.75-3.35-3.91-5.71c-1.16-2.36-2.66-5.87-4.52-10.52-.13-.29-.28-.63-.44-1-.16-.37-.33-.79-.49-1.25-.23.72-.65,1.73-1.27,3.03-.62,1.3-1.01,2.12-1.17,2.44-1.01,2.02-1.77,3.62-2.27,4.81-.5,1.19-.76,2.08-.76,2.66,0,2.25-.23,4.02-.68,5.32-.46,1.3-1.38,1.95-2.78,1.95s-2.51-.67-3.25-2c-.73-1.33-1.1-3.04-1.1-5.13,0-.85.51-2.47,1.54-4.88,1.03-2.41,2.5-5.68,4.42-9.81.33-.75.76-1.69,1.29-2.83.54-1.14.92-1.99,1.15-2.54l1.76-4.1c-.23-.46-.49-.89-.78-1.32-.1-.16-.46-.78-1.1-1.86s-1.34-2.52-2.12-4.35c-.23-.46-.44-.85-.63-1.17-1.69-3.19-3.12-6.11-4.27-8.76-1.16-2.65-1.73-4.91-1.73-6.76,0-1.01.28-2.09.85-3.25.57-1.16,1.18-1.73,1.83-1.73,1.24.16,2.56,1.52,3.96,4.08,1.4,2.56,3.08,6.13,5.03,10.72,1.53,3.48,2.52,5.65,2.98,6.49,1.07-2.02,2.11-4.09,3.1-6.23.99-2.13,1.65-3.54,1.98-4.22,1.37-2.96,2.43-5.18,3.2-6.64s1.58-2.63,2.44-3.49c.86-.86,1.81-1.29,2.86-1.29.65,0,1.18.29,1.59.85.41.57.61,1.26.61,2.08,0,.72-.1,1.33-.29,1.86-.81,2.28-1.8,4.61-2.95,6.98-1.16,2.38-2.6,5.18-4.32,8.4-.23.42-.94,1.77-2.15,4.05-1.2,2.28-2.17,4.31-2.88,6.1,0,.91.72,2.88,2.15,5.91s3.19,6.58,5.27,10.64l.78,1.51c.39.72,1.06,1.55,2,2.49.91.88,1.58,1.74,2,2.59.42.85.63,2.08.63,3.71,0,1.43-.19,2.51-.56,3.25Z"/></g><g id="Y"><path d="M312,826v108h68v-108h-68ZM366.39,854.22c-.15.36-.35.78-.61,1.27-.85,1.63-1.56,3.09-2.15,4.39-1.2,2.93-4.17,9.26-8.89,18.99-3.71,7.75-6.48,13.57-8.3,17.48-1.82,3.91-3.27,7.29-4.35,10.16-.16.72-.54,1.6-1.12,2.66s-1.11,1.59-1.56,1.59c-.39,0-.93-.26-1.61-.78s-1.29-1.16-1.83-1.93c-.54-.76-.81-1.54-.81-2.32.07-1.76.54-3.97,1.42-6.64.88-2.67,1.97-5.18,3.27-7.52.29-.55.6-1.14.93-1.76.33-.62.55-1.06.68-1.32,0-.2-.06-.49-.17-.88s-.25-.68-.42-.88c-1.01-1.53-2.79-4.6-5.35-9.2-2.56-4.61-4.88-9.18-6.98-13.72s-3.15-7.74-3.15-9.59c0-1.11.29-2.09.88-2.95.59-.86,1.24-1.29,1.95-1.29.55,0,1.03.17,1.42.51s.88,1.02,1.46,2.03c.62,1.04,2.33,4.3,5.13,9.77,1.82,3.55,3.69,7.15,5.59,10.79,1.9,3.65,3.3,6.14,4.17,7.47l4.3-8.74,2.93-6.25c1.66-3.65,3.04-6.55,4.15-8.72,1.11-2.16,2.25-3.97,3.44-5.42,1.19-1.45,2.35-2.17,3.49-2.17.72,0,1.28.4,1.68,1.2.41.8.61,1.77.61,2.91,0,.23-.07.52-.22.88Z"/></g><g id="Z"><path d="M390,826v108h68v-108h-68ZM444.36,906.93c-.63,1.43-1.54,2.15-2.71,2.15-.59,0-1.2-.08-1.86-.24-.78-.13-1.38-.2-1.81-.2-2.05,0-5.45.1-10.21.29-.68.03-2.33.1-4.93.2s-5.05.15-7.32.15c-2.12,0-4.83-.16-8.15-.49-1.01-.07-1.68-.44-2-1.12s-.49-1.81-.49-3.37c0-2.02.35-4.01,1.05-5.98.7-1.97,1.72-4.04,3.05-6.23,1.82-3.06,3.94-6.45,6.35-10.16,3.12-4.92,5.6-8.91,7.42-11.99s3.45-6.21,4.88-9.4h-1.95c-1.73,0-3.67.07-5.83.2-2.17.13-3.52.21-4.08.24-4.17.26-7.06.39-8.69.39-1.24,0-2.28-.54-3.12-1.64-.85-1.09-1.27-2.45-1.27-4.08s.36-2.77,1.07-3.64c.72-.86,1.63-1.29,2.73-1.29.78,0,2.15.07,4.1.2,1.95.13,3.34.2,4.15.2,1.3,0,3.39-.03,6.25-.1,2.15-.1,4.36-.15,6.64-.15,2.64,0,5.26.11,7.86.34.62.1,1.06.64,1.32,1.64.26.99.39,2.09.39,3.3,0,1.37-1.18,4.24-3.54,8.62-2.36,4.38-5.03,8.98-8.01,13.82s-5.36,8.57-7.15,11.21c-.81,1.24-1.84,2.91-3.08,5-1.24,2.1-2.1,3.69-2.59,4.76h13.67c1.86,0,3.24-.02,4.15-.05l4.25-.05c.59,0,1.15-.09,1.68-.27.54-.18,1.2-.45,1.98-.81.78-.36,1.38-.61,1.78-.76s.84-.22,1.29-.22c1.27,0,2.2.45,2.78,1.34.59.9.88,2.06.88,3.49,0,1.69-.32,3.26-.95,4.69Z"/></g></svg>