<?xml version="1.0" encoding="UTF-8"?>
<svg xmlns="http://www.w3.org/2000/svg" version="1.1" viewBox="0 0 1836 216">
  <!-- Generator: Adobe Illustrator 28.7.1, SVG Export Plug-In . SVG Version: 1.2.0 Build 142)  -->
  <g>
    <g id="Capa_1">
      <g id="a">
        <path d="M38,40.8c-1.7-.9-3.2-1.4-4.5-1.4-3.4,0-6.4.9-9,2.8-2.6,1.9-4.7,4.3-6.1,7.2s-2.2,5.9-2.2,8.9.6,3.8,1.9,5.3,2.8,2.8,4.8,3.7,4,1.3,6,1.3c3.8,0,6.8-1.1,8.8-3.2,2.1-2.1,3.5-4.5,4.3-7.2.8-2.7,1.5-6.3,2.1-10.6,0-1-.6-2.2-1.8-3.5-1.2-1.3-2.7-2.4-4.3-3.4h0ZM0,0v108h68V0H0ZM57.6,73.7c-.6,1.1-1.5,2-2.5,2.7s-2.3,1.1-3.6,1.1-2.5-.5-3.8-1.4c-1.3-.9-2.3-2.2-3.2-3.7s-1.2-3.1-1.2-4.7c-2.4,3.1-5,5.6-7.6,7.4-2.6,1.9-5.4,2.8-8.4,2.8s-5.4-.9-8.2-2.6-5.1-4.1-6.9-7.1c-1.8-3-2.7-6.2-2.7-9.6s1.1-9.2,3.2-13.7c2.1-4.5,5-8.1,8.5-10.9,3.6-2.8,7.4-4.2,11.5-4.2s6,.9,8.7,2.8c2.7,1.9,4.8,4.3,6.4,7.3s2.4,6,2.4,9.1,0,2.6-.3,3.9c-.2,1.3-.3,2.1-.3,2.4-.3,1.5-.5,2.9-.6,4s-.2,2.4-.2,3.8.3,3.3.8,4.1c.6.8,1.4,1.2,2.6,1.2s.6-.1.9-.3c.3-.2.7-.6,1.1-1,0,0,.2-.2.6-.5.3-.3.6-.5.8-.6,1,0,1.7.3,2.2,1s.7,1.7.7,3.1-.3,2.2-.9,3.3h0Z"/>
      </g>
      <g id="b">
        <path d="M68,0v108h68V0h-68ZM116.7,79.5c-2.5,3.7-5.5,6.4-9,8-3.5,1.7-6.8,2.5-10,2.5s-4.4-.4-6.7-1.1c-.4,0-.8,0-1.1.2-.3.2-.5.3-.6.3-.7.4-1.3.6-1.9.6-1.5,0-2.5-.8-3-2.5-.5-1.6-.7-4.2-.7-7.8v-4.2l.8-53.1c0-1.5.2-2.6.8-3.4.5-.8,1.4-1.2,2.7-1.2s.9.2,1.4.5,1,.8,1.3,1.3.5,1.2.5,1.9c0,2.9,0,6-.2,9.3-.1,5.6-.2,10.8-.2,15.6,2-1.2,3.9-2.2,5.8-2.8s3.7-1,5.6-1c6,0,10.6,1.9,13.6,5.8,3.1,3.8,4.6,9.5,4.6,17.1s-1.2,10.3-3.7,14h0ZM106.4,53.3c-2-.9-3.8-1.4-5.4-1.4s-3.6.5-5.7,1.5c-2.1,1-3.6,2.1-4.5,3.4,0,2.7-.2,6.1-.2,10.2s0,7.9.2,9.5c.1,1.7.3,2.8.6,3.3,1,.5,3.1.8,6.2.8s3.2-.3,5-.9c1.8-.6,3.6-1.5,5.2-2.6,1.6-1.1,2.8-2.3,3.6-3.5.6-1.1,1.1-2.7,1.4-4.9.4-2.2.5-4.3.5-6.3s-.7-3.8-2.1-5.4-3-2.9-5-3.8h0Z"/>
      </g>
      <g id="c">
        <path d="M136,0v108h68V0h-68ZM186.9,74.3c-.5.8-1,1.5-1.6,2.1-.6.6-1.2.8-1.7.8h-2.9c-1.1,0-2.7,0-4.8.2-2.1.1-3.7.2-4.8.2-5.7,0-10.2-1.4-13.5-4.2-3.4-2.8-5-7.5-5-14.1s.9-10.2,2.6-14.6,4.3-7.9,7.6-10.5,7.3-3.9,11.9-3.9,4.4.6,6.3,1.7c1.9,1.1,3.5,2.7,4.6,4.6s1.7,4.2,1.7,6.6-.2,2.3-.5,3.5c-.4,1.2-.9,1.8-1.7,1.8s-1-.2-1.4-.6c-.4-.4-.9-1.1-1.5-2-.7-1.1-1.4-2-2.1-2.8-.7-.8-1.6-1.4-2.8-2-1.2-.5-2.6-.8-4.4-.8-2.7,0-5.1.8-7.2,2.3s-3.8,3.6-5,6c-1.2,2.5-1.8,5.1-1.8,7.8s.6,5.6,1.8,7.3c1.2,1.7,3,2.9,5.5,3.5,2.5.7,5.8,1,10,1s1.7,0,2.3-.3,1.4-.5,2.2-.8c1.1-.5,2-.9,2.8-1,.4,0,.9.2,1.5.6s1.1,1,1.6,1.9c.5.9.7,2,.7,3.4s-.2,1.5-.7,2.3h0Z"/>
      </g>
      <g id="d">
        <path d="M245.4,53.2c-1.7-1.2-3.4-1.8-5.2-1.8-3.2,0-5.9.7-8.3,2.2s-4.2,3.4-5.4,5.9-1.9,5.4-1.9,8.6.5,4.9,1.6,6.9c1.1,2,2.5,3.5,4.4,4.6s3.9,1.6,6.2,1.6,4.8-.3,6.8-1.1c2-.7,3.5-1.5,4.7-2.5s1.9-1.9,2.1-2.7c.3-.8.4-1.8.5-2.7s.1-2.1.1-3.4v-4.5c0-2.2-.5-4.3-1.5-6.3-1-2-2.4-3.6-4-4.8h0ZM204,0v108h68V0h-68ZM258.2,30v7.4c-.1,0-.7,31-.7,31l-.2,8.4c0,4.3-.3,7.6-.9,9.8s-1.6,3.3-3.3,3.3-1.2-.4-1.7-1.3-1-2.1-1.6-3.7c-1.1,1-2.5,1.9-4.2,2.7s-3.6,1.3-5.4,1.7-3.5.6-4.8.6c-5.8,0-10.2-1.9-13.2-5.8-3-3.8-4.5-9.1-4.5-15.7s.9-8.8,2.7-12.8,4.3-7.2,7.7-9.7c3.4-2.4,7.3-3.7,11.8-3.7s3.8.4,5.5,1.1c1.7.8,3.2,1.8,4.3,3.2s1.8,2.9,2,4.7v-14c.1,0,.2-13.9.2-13.9,0-3.4,1.2-5.1,3.7-5.1s1.6.5,2,1.4c.4.9.6,2,.6,3.3v7.2s0,0,0,0Z"/>
      </g>
      <g id="e">
        <path d="M312.7,46.8c3.3-1.4,5.5-2.3,6.7-2.7-.9-1.9-2.4-3.3-4.4-4.2s-4.5-1.3-7.2-1.3-3.4.6-5.7,1.7c-2.2,1.2-4.3,2.9-6.2,5.3s-3.1,5.4-3.6,8.9c2.4-.7,5.2-1.6,8.4-2.9,3.1-1.2,7.1-2.9,12-4.9h0ZM272,0v108h68V0h-68ZM318.9,77.1c-4.4,1-8.8,1.5-13.1,1.5s-6.3-.9-9.3-2.8-5.4-4.4-7.3-7.6-2.8-6.8-2.8-10.6c0-5.5.9-10.4,2.7-14.6s4.4-7.5,7.8-9.9c3.4-2.4,7.5-3.5,12.2-3.5s5,.6,7.5,1.9c2.5,1.2,4.5,3,6.1,5.4,1.6,2.4,2.4,5.2,2.4,8.4s-.2,3-.7,4.2-1.2,1.8-2,2.1l-29.5,10.5c1,3.2,3.1,5.3,6.1,6.3s6.5,1.5,10.3,1.5,2.5-.2,3.7-.5,2.7-.9,4.4-1.5c1.1-.4,2-.8,2.7-1s1.3-.3,1.8-.3c1.2,0,2.1.4,2.7,1.1s.9,1.9.9,3.5c0,3.1-2.2,5.1-6.6,6.1h0Z"/>
      </g>
      <g id="f">
        <path d="M340,0v108h68V0h-68ZM392.5,27.9c-.3,1-.8,1.5-1.5,1.5s-1.3-.1-1.9-.4-1.3-.6-2-1c-1-.5-1.8-1-2.4-1.2-.6-.3-1.3-.4-2.1-.4-3.4,0-5.8,1.9-7.4,5.8-1.5,3.9-2.4,8.5-2.7,13.9h11.5c.3,0,.7,0,1.3-.2.6,0,1.1-.1,1.5-.1.9,0,1.5.3,2.1,1s.9,1.8.9,3.5-.5,3.5-1.3,4.2c-.9.6-2,.9-3.2.9-5.7-.3-9.7-.5-11.9-.5h-1.1c0,1.9-.1,5-.2,9.2-.2,4.7-.3,8.5-.3,11.4,0,.4.1,1.2.3,2.7,0,.3.2,1.3.4,3.1.2,1.8.4,3.6.4,5.5,0,2.7-.9,4.1-2.7,4.1s-2.8-.3-3.5-.8-1.3-1.6-1.6-3.1c-.3-1.5-.4-3.9-.4-7.2s0-4,.1-6.5c0-2.4.1-4.2.1-5.2.2-3.4.3-6.9.3-10.5,0-.5,0-1.3.1-2.4-2.6.2-4.9.2-6.9.2s-1.6-.5-2.2-1.5-1-2.1-1-3.3.3-2.2,1-3.3c.7-1,1.4-1.6,2.2-1.6l7,.3h.4c.9-8.3,2.8-15.2,5.4-20.7s6.4-8.3,11.2-8.3,2.3.3,4,1,3.2,1.6,4.4,2.8c1.3,1.2,1.9,2.4,1.9,3.8s-.1,2.2-.4,3.2h0Z"/>
      </g>
      <g id="g">
        <path d="M408,0v108h68V0h-68ZM460.1,62v.7c-.2.9-.5,2.9-.8,6-.5,4.4-1.1,7.9-1.8,10.7s-1.8,5-3.6,7c-1.7,1.9-4.2,2.9-7.5,2.9s-2.9-.2-4.9-.7-3.8-1.2-5.4-2.2c-1.6-1-2.4-2.4-2.4-4.2s.2-2.9.7-3.7,1.2-1.3,2.4-1.3.6,0,.8.2.5.2.7.4c.8.5,1.8.9,3,1.3,1.2.3,3.1.5,5.8.5s2.7-.7,3.5-2.1,1.4-3.1,1.7-5.1c.3-2,.5-4.6.8-7.9.1-2.3.3-4,.4-5-.4,1.5-1.2,2.8-2.6,3.9-1.4,1.1-3,2-4.8,2.6s-3.5.9-5.1.9c-5.9,0-10.3-1.8-13.4-5.4s-4.6-8.9-4.6-16,.7-9,2-13c1.4-4,3.4-7.3,6.2-9.8,2.8-2.5,6.2-3.7,10.3-3.7s6.3,1.1,9.3,3.2,5.5,4.8,7.4,7.9,2.8,6.1,2.8,9l-.9,23.1h0ZM449.1,30.5c-1.6-1.5-3.8-2.3-6.5-2.3-4.5,0-7.7,1.5-9.7,4.6-2,3.1-3.1,7-3.1,11.8,0,4.8,1.1,8.1,3.2,10.1,2.1,1.9,5.1,2.9,9,2.9s3.9-.7,5.6-2.2,3.1-3.3,4.2-5.4c1.1-2.1,2-4.2,2.5-6.3-.4-2.8-.9-5.3-1.6-7.6-.7-2.2-1.9-4.1-3.5-5.6h0Z"/>
      </g>
      <g id="h">
        <path d="M476,0v108h68V0h-68ZM529,82.3c0,.2,0,1.1,0,2.7,0,1.6-.4,3-1,4.1s-1.5,1.7-2.7,1.7-2.1-.5-2.8-1.5-1-2.3-1-3.8.2-5.1.6-8.8c.4-3.6.6-6.5.6-8.4v-1.1c0-2.6-.3-4.9-.8-7-.6-2.1-1.8-3.8-3.8-5.2-2-1.4-4.8-2.2-8.6-2.2s-3.7.4-5.6,1.3c-1.8.9-3.3,1.9-4.5,3.2-1.2,1.3-1.7,2.5-1.7,3.6v22.9c0,1.3-.1,2.4-.2,3.1-.1.8-.4,1.5-.8,2.1s-1.2.9-2.1.9-1.8-.3-2.6-1-1.2-2-1.2-4.1c0-7.2.1-17.5.4-30.8.3-14.6.4-24.8.4-30.5s.2-1.7.5-2.7.8-1.9,1.5-2.6c.6-.7,1.3-1.1,2-1.1s1.5.4,2.1,1.3.9,1.8.9,2.9v.2c0,2.5-.1,6.6-.3,12.3-.2,5-.3,9.3-.3,12.7l-.2,5.9c.3-1.8,1.1-3.3,2.4-4.8,1.3-1.4,2.8-2.5,4.5-3.3,1.7-.8,3.4-1.2,5-1.2,7.5,0,12.7,2.3,15.6,6.8,2.9,4.6,4.4,10,4.4,16.3l-.5,15.9h0Z"/>
      </g>
      <g id="i">
        <path d="M544,0v108h68V0h-68ZM579.7,87.7c-.7.9-1.4,1.4-2.3,1.4-1.2,0-2.2-.4-2.9-1.1-.7-.8-1.2-2-1.6-3.8-.3-1.6-.4-4.9-.4-10,0-8.5.3-16.1,1-23s2.2-10.3,4.6-10.3,1.6.4,1.9,1.3.5,2.1.5,3.7l-.4,6.8c-.2,2.3-.3,4.7-.4,7.3-.1,2.5-.2,4.8-.2,6.8s.2,5.1.6,8.9c.4,4,.6,6.7.6,8.2s-.3,2.9-1,3.9h0ZM578.9,30.6c-1.3,0-2.6-.4-3.7-1.2-1.2-.8-1.7-2.1-1.7-4.1s.3-2,.8-3,1.2-1.8,2-2.5c.8-.6,1.6-1,2.3-1,1.3,0,2.5.4,3.5,1.3s1.5,2.3,1.5,4.4c0,4.1-1.5,6.1-4.5,6.1h0Z"/>
      </g>
      <g id="j">
        <path d="M612,0v108h68V0h-68ZM653.2,44.2c-.4,4.4-.6,7.6-.6,9.9v4.4c.1,2.5.2,4.4.2,5.9v1.8c0,8.5-.4,15.1-1.1,19.8s-2.5,8.5-5.4,11.4-7.6,4.4-13.9,4.4-3.3-.3-4.7-.9c-1.4-.6-2.1-2-2.1-4.1s.3-2.8,1-3.4,1.7-.9,3-.9h1.5c4.5,0,7.9-1.2,10.1-3.5s3.6-5.3,4.2-8.7.9-7.9.9-13.4v-28c.2-5.6,1.4-8.4,3.9-8.4s1.9.5,2.5,1.5.9,2.1,1.1,3.5c0,2.2-.2,5.2-.5,8.9h0ZM649.9,18.1c-1.3,0-2.6-.4-3.8-1.2-1.2-.8-1.8-2.2-1.8-4.1s.3-2,.8-3,1.2-1.8,2.1-2.5,1.6-1,2.4-1c1.3,0,2.4.4,3.4,1.3s1.5,2.4,1.5,4.4c0,4-1.5,6.1-4.5,6.1h0Z"/>
      </g>
      <g id="k">
        <path d="M680,0v108h68V0h-68ZM730.7,44.3c0,1.3-.8,2.8-2.3,4.4s-3.7,3.8-6.6,6.4l-2.5,2.3c.5,1,.9,2.2,1.4,3.5s.8,2.2,1,2.7c1,3,2,5.4,2.9,7.4.8,1.8,1.6,3.5,2.4,4.9.7,1.2,1.5,2.6,2.2,4.3,0,.2.2.6.5,1.2s.5,1.3.7,2c.2.7.3,1.3.3,1.7,0,1.6-.4,2.9-1.3,4s-1.9,1.6-3.1,1.6-1.4-.3-1.9-.9-.9-1.6-1.2-2.9c0,.1-.6-1.4-1.9-4.6s-3.7-9.5-7.2-18.9l-9.3,11.3c0,2,0,3.6,0,4.7v5.2c0,1.3-.3,2.5-1.1,3.7s-1.6,1.8-2.8,1.8-1.6-.3-2.1-.9c-.6-.6-1-1.3-1.2-2.1s-.4-1.5-.4-2.2v-4.1c0-1.7.2-3.6.5-5.9.2-1,.3-2.1.3-3.1l1.4-49.6c0-.9.2-1.7.6-2.5s.9-1.3,1.4-1.8c.6-.4,1.1-.6,1.6-.6s.9.2,1.4.6c.5.4,1,1,1.3,1.8.4.8.5,1.6.5,2.7,0,5.2-.3,12.2-.8,21.1-.3,4.8-.5,8.9-.7,12.3s-.2,6.9-.2,10.4v.7l19-24.8c.5-.8,1-1.4,1.6-1.9s1.2-.7,1.7-.7c1.4,0,2.3.4,2.8,1.1s.8,1.8.8,3.4v.5h0Z"/>
      </g>
      <g id="l">
        <path d="M748,0v108h68V0h-68ZM788.9,87.1c-.8,1-1.7,1.9-2.8,2.4s-2.1.9-3,.9c-3.2,0-5.5-1-7-3.1s-2.2-5.1-2.1-9l.6-53.6c0-2.1.3-3.9.9-5.2s1.5-2,2.7-2,1.5.5,2,1.4.8,2,.8,3.1l-.6,46.9v1.7c0,3.1.2,5.6.7,7.6.4,2,1.1,3,2.1,3s.8-.1,1.1-.3.6-.5,1-.9.7-.7,1-.9c.3-.2.6-.3,1-.3.9,0,1.5.5,2,1.4.5.9.7,2,.7,3.2s-.4,2.4-1.1,3.5h0Z"/>
      </g>
      <g id="m">
        <path d="M816,0v108h68V0h-68ZM878.4,71.6c-.7,4.1-1.8,6.1-3.2,6.1s-1.5-.3-2.2-.9c-.7-.6-1.2-1.4-1.6-2.4-.4-.9-.6-1.8-.6-2.6s0-2.1.3-2.9.4-1.8.7-2.8c.3-1.1.6-2,.8-2.9.2-.9.3-1.9.3-3.1v-7.6c0-1.8-.4-3.6-1.2-5.5-.9-1.8-2.1-3.4-3.8-4.5-1.6-1.2-3.6-1.8-5.8-1.8s-2.5.3-3.9.9-2.8,1.5-4,2.7c-1.2,1.1-2.1,2.4-2.6,3.8l-.5,19.9.2,1.5.2,1.5c0,1.6-.3,3-.9,4.2s-1.3,1.8-2.2,1.8c-1.4,0-2.5-.4-3.3-1.1s-1.3-2.1-1.3-4.2v-1c.4-2.2.5-3.6.5-4l.2-14.6c0-1.9-.3-3.9-1-5.8-.7-1.9-1.7-3.5-3-4.8-1.3-1.2-2.8-1.9-4.5-1.9s-4.1.3-5.4.9c-1.3.6-2.2,1.6-2.8,2.9-.5,1.3-.8,3.1-.8,5.4v1.9c0,1.8,0,4.4.3,7.9,0,.6,0,1.4,0,2.3l.8,11.2c0,.9-.2,1.8-.6,2.5s-.9,1.3-1.5,1.8-1,.6-1.4.6c-1.4,0-2.4-.5-3-1.4-.6-.9-1-2.7-1-5.2v-1.7c0-.2,0-.6,0-1.1v-7.9c0-1.2,0-2.7,0-4.6v-7.8c0-3.9,0-7,.2-9.2.1-2.2.4-3.9.9-5.1.5-1.2,1.2-1.8,2.1-1.8,1.8,0,2.7,1.7,2.7,5.2v.9c.4-1.2,1.1-2.4,2.1-3.5,1-1.1,2.1-2,3.4-2.7s2.6-1,3.9-1,3.5.4,5.5,1.3,3.8,2.2,5.3,4.1c1.5,1.9,2.2,4.2,2.2,7,.4-2.2,1.4-4.2,2.9-5.8,1.5-1.7,3.2-3,5.2-3.9,2-.9,3.7-1.3,5.4-1.3,5.4,0,9.6,2,12.6,6.1,3,4.1,4.5,10.4,4.5,19s-.4,10.8-1.1,14.8h0Z"/>
      </g>
      <g id="n">
        <path d="M884,0v108h68V0h-68ZM936.7,71.9c-.6,4.3-1.9,6.4-3.8,6.4s-1.5-.1-2-.3c-.5-.2-.9-.7-1.3-1.5s-.5-2-.5-3.7,0-2.1.2-3.2.4-2.3.7-3.9c.4-1.8.6-3.2.8-4.2.2-1,.2-2.1.2-3.3,0-5.2-.8-9.6-2.5-13.4-1.6-3.8-4.8-5.7-9.4-5.7s-2.9.4-4.7,1.2-3.5,1.9-5.1,3.3-3,3-4,4.7c0,1.1,0,3-.1,5.6,0,2.5-.1,4.2-.1,5.1s0,2,.2,2.9c.1,1,.3,2.1.6,3.5.2,1,.4,2.1.5,3.2s.2,2.2.2,3.1c0,1.9-.2,3.3-.6,4.2s-1.3,1.4-2.7,1.4-2.5-.4-3.4-1.2-1.2-2.4-1.2-4.7l.2-19.1c-.4-4.6-.5-7.8-.5-9.5v-1.5c0-2.9.3-5.5.8-7.9s1.5-3.6,2.7-3.6c2.5,0,3.7,2.1,3.7,6.4s-.1,2-.3,4.1v1.3c.6-2.5,1.9-4.7,3.8-6.5,1.9-1.8,3.9-3.2,6.1-4.1s4-1.4,5.6-1.4c6.1,0,10.5,2.5,13,7.5,2.6,5,3.9,11.1,3.9,18.3s-.3,12.1-.9,16.4h0Z"/>
      </g>
      <g id="_ñ">
        <path d="M952,0v108h68V0h-68ZM972,20.4c.9-1.5,2-2.6,3.4-3.5,1.4-.9,2.8-1.3,4.3-1.3s3.2.4,4.5,1.1c1.2.7,2.5,1.8,3.9,3.1.9.8,1.7,1.5,2.2,1.9s1.2.6,1.8.6c.9,0,1.6-.2,2.1-.6.5-.4,1-1,1.6-1.8.5-.6.8-1.1,1.2-1.4.3-.3.8-.4,1.3-.4.8,0,1.3.3,1.7.9.4.6.6,1.4.6,2.3,0,1.6-.3,3.1-1,4.6-.7,1.5-1.6,2.8-2.9,3.7s-2.8,1.5-4.5,1.5-2.1-.3-3.1-1c-1-.6-2.3-1.5-3.8-2.8-1.4-1.1-2.5-1.9-3.2-2.4-.8-.5-1.6-.8-2.4-.8s-1.7.3-2.3.8-1.2,1.4-1.8,2.4c-.4.7-.8,1.2-1,1.5s-.6.5-.9.5c-.8,0-1.5-.4-2-1.1s-.9-1.7-.9-2.9c0-1.8.4-3.4,1.3-4.9h0ZM1004.7,86c-.6,4.3-1.9,6.5-3.8,6.5s-1.5-.1-2-.3c-.5-.2-.9-.7-1.3-1.5-.3-.8-.5-2-.5-3.7s0-2.1.2-3.2.4-2.3.7-3.9c.4-1.8.6-3.2.8-4.2s.2-2.1.2-3.3c0-5.2-.8-9.6-2.5-13.4-1.6-3.8-4.8-5.7-9.4-5.7s-2.9.4-4.7,1.2-3.5,1.9-5.1,3.3-3,3-4.1,4.7c0,1.1,0,3-.1,5.6,0,2.5-.1,4.2-.1,5.1s0,2,.2,3c.1,1,.3,2.1.6,3.5.2,1,.4,2.1.5,3.2s.2,2.2.2,3.1c0,1.9-.2,3.3-.6,4.2s-1.3,1.4-2.7,1.4-2.5-.4-3.4-1.2c-.9-.8-1.2-2.4-1.2-4.7l.2-19.1c-.4-4.6-.5-7.8-.5-9.5v-1.5c0-2.9.3-5.5.8-7.9.6-2.4,1.4-3.6,2.7-3.6,2.5,0,3.7,2.1,3.7,6.4s-.1,2-.3,4v1.3c.6-2.5,1.9-4.7,3.8-6.5s3.9-3.2,6.1-4.1,4-1.4,5.6-1.4c6.1,0,10.5,2.5,13,7.5,2.6,5,3.9,11.1,3.9,18.3s-.3,12.1-.9,16.4h0Z"/>
      </g>
      <g id="o">
        <path d="M1061.9,41c-1.7-1.2-3.6-1.9-5.7-1.9s-5.1.5-7.5,1.6c-2.4,1.1-4.4,2.7-5.9,4.9-1.5,2.1-2.3,4.7-2.3,7.8s.6,5,1.9,7.5c1.2,2.4,2.8,4.4,4.8,5.9,2,1.5,4,2.3,6.2,2.3s4.7-.6,6.8-1.8c2.1-1.2,3.8-2.9,5.2-5.2s1.9-4.9,1.9-8-.5-5.5-1.4-7.7c-1-2.2-2.3-4-4-5.2h0ZM1020,0v108h68V0h-68ZM1070.9,66.6c-1.9,3.6-4.3,6.4-7.4,8.5-3,2-6.3,3-9.6,3s-6.6-1.2-9.7-3.6c-3-2.4-5.4-5.5-7.2-9.2-1.8-3.7-2.7-7.3-2.7-10.9,0-5.7,1-10.3,2.9-14,2-3.7,4.5-6.4,7.7-8,3.1-1.7,6.5-2.5,10.2-2.5s7.2,1,10,3,4.9,4.9,6.4,8.5,2.2,8,2.2,13-.9,8.6-2.8,12.2h0Z"/>
      </g>
      <g id="p">
        <path d="M1130.5,30.2c-2.8-2-6.8-3.1-11.8-3.1s-2.4.2-3.8.5c-1.4.4-2.7.9-3.7,1.5-1,.7-1.6,1.4-1.6,2.3l-.3,12.4c0,.9,0,2.9,0,5.8.1,3,.2,5,.3,6,0,.3.7.4,2.1.5,1.4.1,2.8.1,4.1.1,3.4,0,6.6-.6,9.4-1.9,2.9-1.2,5.1-3.2,6.9-5.8s2.6-5.8,2.6-9.6-1.4-6.9-4.2-9h0ZM1088,0v108h68V0h-68ZM1138.8,52.4c-1.9,4.2-4.5,7.5-7.9,9.8-3.4,2.3-7.4,3.4-12,3.4s-3,0-4.3-.3-2.9-.5-5-.9v4c0,2.4.2,5.4.5,8.9.3,3.5.5,6.4.5,8.6s-.4,2.2-1.3,3-1.7,1.1-2.7,1.1-2.3-.4-2.9-1.1c-.6-.7-.9-1.7-1.1-3-.1-1.3-.2-3.3-.2-6.1,0-4.8.3-22.4.9-52.7,1-2.2,2.4-4,4.1-5.4,1.8-1.4,3.7-2.4,5.7-3,2-.6,3.9-.9,5.7-.9,4.8,0,8.9.9,12.3,2.6,3.4,1.7,6,4.1,7.8,7.1,1.8,3,2.7,6.4,2.7,10.1,0,5.6-.9,10.5-2.8,14.7h0Z"/>
      </g>
      <g id="q">
        <path d="M1156,0v108h68V0h-68ZM1208.8,50.9c-.3,8.9-.5,17.1-.5,24.9v10c0,.9-.2,1.7-.6,2.3-.4.6-.9,1-1.5,1.3-.6.3-1.1.4-1.6.4-1.3,0-2.2-.3-2.9-.9s-1-1.6-1-3v-.6l1-18.8v-8.5c-.2,1.3-1.1,2.6-2.5,3.9-1.4,1.2-3.1,2.2-4.9,3-1.8.8-3.5,1.1-5,1.1-3.7,0-7-1.1-9.8-3.2s-4.9-4.9-6.4-8.2-2.2-6.8-2.2-10.4.9-9.2,2.5-13.2c1.7-4,4-7.1,7-9.4,3-2.3,6.3-3.4,9.9-3.4s5.4.8,8.4,2.3c2.9,1.6,5.4,3.8,7.4,6.8,2,3,3,6.5,3,10.5s-.1,6.6-.3,13.1h0ZM1197.7,29.5c-2-1.5-4.1-2.2-6.2-2.2s-4.8.6-7,2c-2.1,1.3-3.8,3.1-5.1,5.5-1.3,2.4-1.9,5.1-1.9,8.1s.5,4.3,1.4,6.4c.9,2.1,2.3,3.8,4.2,5.2s4.2,2,6.9,2,5.5-1.1,7.3-3.3,3-4.9,3.7-8.1,1-6.4,1-9.6c-.9-2.5-2.4-4.5-4.4-6h0Z"/>
      </g>
      <g id="r">
        <path d="M1224,0v108h68V0h-68ZM1274.3,40.6c-.4.8-1,1.5-1.6,1.9-.7.5-1.4.7-2.1.7s-1.1-.1-1.4-.3c-.3-.2-.6-.6-.8-1.1-.4-.8-.9-1.3-1.6-1.7-.7-.4-1.8-.6-3.5-.6h-1.1c-5,0-8.5,1.4-10.6,4.1s-3.2,6.9-3.2,12.6v1.7l.5,15c0,.5-.1,1.2-.4,2-.2.8-.6,1.5-1.2,2.1s-1.2.9-2.1.9c-1.6,0-2.6-.5-3.2-1.4-.6-.9-.9-2.5-.9-4.6s0-2.9.1-4.5c0-.5,0-1.2,0-2v-4.6c0-1.8,0-4.3.3-7.5s.6-8.8,1.2-16.8c.1-1.6.5-2.9,1.1-3.9.6-.9,1.5-1.4,2.7-1.4s1.3.4,1.8,1.3c.6.9.9,2.2.9,4.1,0,2.9,0,4.7-.1,5.3.6-2.1,1.9-4,3.8-5.8s3.9-3.2,6.1-4.3,4.1-1.6,5.8-1.6c2.7,0,5,.5,7.1,1.6s3.1,3.1,3.1,6.2-.2,1.9-.6,2.7h0Z"/>
      </g>
      <g id="s">
        <path d="M1292,0v108h68V0h-68ZM1339.9,73c-2.4,2-5.1,3.5-8.3,4.5s-5.9,1.4-8.2,1.4-6-.6-8.6-1.9-4-3.6-4-7.1.2-1.2.5-2.1.7-1.5,1.2-2.1,1-.9,1.5-.9.6.3,1.2.9c.9,1.1,1.7,1.9,2.5,2.4s1.7.9,2.7,1.1c1,.2,2.4.3,4,.3s3.5-.2,5.5-.7,3.6-1,5-1.5,2-1.1,2-1.4c0-.9-.4-1.6-1.3-2.2-.9-.6-1.9-1-3.1-1.3-1.2-.3-3.1-.7-5.5-1.2-3.8-.7-6.9-1.5-9.4-2.3s-4.6-2.1-6.4-3.9c-1.8-1.8-2.7-4.2-2.7-7.2s1-7,3.1-9.8,4.7-5,7.8-6.5,6.4-2.3,9.6-2.3,4,.4,5.7,1.3c1.7.9,3,2,3.9,3.3s1.4,2.9,1.4,4.5c0,2.6-.2,4.7-.6,6.3-.4,1.6-1.3,2.4-2.8,2.4s-1.2-.3-1.4-1-.3-1.7-.3-3.2-.6-2.6-1.8-3.2-2.9-.9-5.3-.9-3.4.4-5.4,1.2c-2,.8-3.7,1.9-5.1,3.2-1.4,1.3-2.1,2.6-2.1,4s.5,2.6,1.6,3.5c1.1.9,2.4,1.6,4,2s3.8,1,6.6,1.5c3.5.7,6.2,1.4,8.4,2s3.9,1.8,5.4,3.2c1.5,1.5,2.2,3.4,2.2,5.8s-1.2,5.7-3.6,7.7h0Z"/>
      </g>
      <g id="t">
        <path d="M1360,0v108h68V0h-68ZM1410.3,47.5c-.7.8-1.5,1.2-2.3,1.2l-15-.2v4.5c-.1,2.7-.2,5.7-.2,8.9,0,4.5.4,8.1,1.1,10.7.8,2.6,2.2,3.9,4.4,3.9s4.1-1,6.9-3c.6-.4.9-.5.9-.5.8,0,1.4.2,1.7.7.3.5.4,1.2.4,2.4s-.5,2.8-1.7,4.4-2.4,2.9-4,3.9-2.9,1.6-4,1.6c-3.7,0-6.4-1.3-8.2-3.9s-2.9-5.7-3.3-9.3-.7-8.3-.8-14.1c0-4.5-.1-7.9-.4-10.2-.5,0-1.2,0-2.3.1-1.2,0-2.2.1-3,.1s-1-.2-1.7-.6-1.2-.9-1.7-1.7c-.5-.7-.7-1.5-.7-2.4s.2-1.8.6-2.6c.4-.8.9-1.4,1.6-1.9s1.3-.7,2-.7c1,0,3,.1,5.8.3.1-4,.5-7.9,1.1-11.5.6-3.6,1.9-5.5,3.7-5.5s.9.2,1.3.6c.5.4.8,1,1.1,1.7s.5,1.5.5,2.3c0,3.5-.2,6.6-.6,9.4v1.2c-.1,0-.6,2-.6,2,1.2,0,2.6,0,4.1,0s2.8,0,3.7-.1c2.6-.1,5.2-.1,7.8-.1s1.6.6,2,1.7.6,2.3.6,3.6-.3,2.5-1,3.2h0Z"/>
      </g>
      <g id="u">
        <path d="M1428,0v108h68V0h-68ZM1479.4,72.6c0,1.8-.3,3-.7,3.7-.5.6-1.2,1-2.4,1s-1.7-.2-2.2-.5-.9-1.1-1.1-2.1-.3-2.8-.3-5.1,0-3,0-4c-.5,2.4-1.5,4.5-2.9,6.5-1.3,2-2.9,3.5-4.6,4.6-1.7,1.1-3.4,1.7-5.1,1.7-6.4,0-10.7-2.6-12.9-7.8s-3.3-11.1-3.3-17.8.2-6.8.6-10.3,1-6.4,2-8.8,2.1-3.6,3.6-3.6,2.7,1.2,2.7,3.5-.3,3.7-1,7c-.5,2.4-.8,4.5-1,6.1-.2,1.7-.3,3.3-.3,5,0,2.4.2,4.9.7,7.5s1.4,4.9,2.8,6.9c1.4,2,3.3,3,5.7,3s5.5-.8,7.5-2.4,3.9-3.9,5.6-6.8c0-.9.2-4,.5-9.5v-2.4c0,0,.2-13.6.2-13.6,0-1.4.4-2.4,1.2-3.1s1.6-1,2.4-1,1.4.3,2,1c.6.7.9,1.6.9,2.8l-.8,38.9h0Z"/>
      </g>
      <g id="v">
        <path d="M1496,0v108h68V0h-68ZM1549.7,36.8c-.3.8-.9,2.2-1.8,4-.9,1.8-2,4-3.4,6.6l-1.8,3.5c-7.8,18.5-13.3,27.8-16.6,27.8s-4-3.3-6.4-9.9c-2.4-6.6-5.2-15.5-8.2-26.6-1-2.4-1.6-4.5-1.6-6.4s.2-2.7.5-3.6c.3-.9,1-1.4,2.1-1.4s2.3.4,2.9,1.1,1.2,2.1,1.7,4l2.1,6.9c1.4,4.8,2.7,9,3.9,12.5,1.2,3.5,2.7,7.4,4.5,11.5.6-.6,1.7-2.7,3.5-6.3,1.8-3.6,4.8-10.3,9-20,2.1-4.1,3.7-7.1,4.7-8.8s2-2.6,2.7-2.6,1.5.5,2,1.5.7,2.3.7,3.8-.1,1.4-.4,2.2h0Z"/>
      </g>
      <g id="w">
        <path d="M1564,0v108h68V0h-68ZM1624.3,63.2c-2.1,4.5-4.9,8.1-8.2,10.8s-6.9,4-10.6,4-4.3-1.1-6.1-3.3c-1.8-2.2-3.2-5.2-4.1-9-.8,2.6-1.9,5-3.3,7.2s-3.1,3.9-4.9,5.1c-1.8,1.2-3.5,1.9-5.1,1.9-4,0-6.9-2.3-8.9-6.9s-3.2-9.5-3.7-14.5-.7-9.5-.7-13.5.3-6.7.8-8.9,1.1-3.9,1.8-4.9c.7-1,1.4-1.5,2-1.5.9,0,1.6.3,2,1,.4.7.6,1.7.6,3.1v.6c0,.8,0,1.7,0,2.7s0,1.8,0,2.3c-.1,1.5-.1,2.8-.1,4,0,5.2.5,10.4,1.6,15.4s2.8,8.7,5.1,10.9c1.8-.2,3.5-1.1,5.2-3s3.1-4.1,4.2-6.8,1.7-5.5,1.7-8.2v-2.4c-.2-.6-.3-2.1-.4-4.4s-.2-4.1-.2-5.5.2-1.6.5-2.6.8-1.8,1.5-2.5c.7-.7,1.5-1,2.4-1s1.6.5,2.1,1.5.8,2.3.9,4,.2,3.8.2,6.5v4.9c0,3.7.1,6.8.3,9.1s.7,4.3,1.5,5.9c.8,1.6,2,2.4,3.7,2.4s4.7-.7,7.1-2c2.4-1.3,4.4-3.3,6.1-5.8,1.6-2.5,2.4-5.5,2.4-8.9,0-5.4-.5-9.4-1.4-12.1-.1-.3-.3-.7-.6-1.3-.3-.6-.5-1.2-.7-1.9s-.3-1.2-.3-1.8c0-1.7.3-3.1.9-4.1.6-1,1.6-1.6,2.9-1.6s1.6.4,2.3,1.2c.8.8,1.2,2.2,1.4,4.1,0,1,0,2.1.2,3.1.1,1,.3,2.4.6,4,.3,1.7.5,3.1.7,4.4.1,1.2.2,2.4.2,3.7,0,5.2-1.1,10-3.1,14.5h0Z"/>
      </g>
      <g id="x">
        <path d="M1632,0v108h68V0h-68ZM1682,76.9c-.7,1-1.6,1.4-2.7,1.4-4.3,0-9.6-5.3-16-15.9,0,.2-.2.5-.4.8-.2.3-.5.8-.9,1.3-.8,1-2.3,3.3-4.8,6.7-.2,1.5-.6,3-1.3,4.5s-1.5,2.2-2.5,2.2-2.4-.4-3.2-1.1c-.8-.7-1.2-2-1.2-3.9s.2-2.3.6-3.1,1-1.7,1.8-2.7c.6-.9,1.9-2.7,3.9-5.4,2.7-3.8,4.4-6.2,5.1-7.2-.9-1.4-2-3.6-3.5-6.7-.6-1.3-1.3-2.6-2-4s-1.4-2.6-2.1-3.8c-.6-.6-1-1.6-1.2-2.8s-.4-2.3-.4-3.4.3-2.1.9-2.9c.6-.8,1.4-1.2,2.4-1.2s1.8,1.1,3.1,3.2,2.7,5,4.3,8.4l3.2,6.8c3.6-6,6.6-10.6,9-13.9s4.4-4.8,6-4.8,1.9.4,2.4,1.1c.5.8.8,1.8.8,3s-.2,1.2-.5,1.7-.9,1.4-1.7,2.4c-4.4,4.3-8.6,9.8-12.6,16.5.6,1.5,1.6,3.4,3,5.6,1.4,2.2,2.9,4.2,4.5,5.9,1.6,1.7,3.1,2.5,4.5,2.5s1.7.3,2.2,1,.8,1.6.8,2.8c0,2.2-.4,3.8-1.1,4.7h0Z"/>
      </g>
      <g id="y">
        <path d="M1700,0v108h68V0h-68ZM1754.2,24.1c-.4.7-1.2,2.2-2.5,4.4-.1.2-.2.3-.3.5s-.1.3-.2.4c-.6.9-1.2,1.8-1.7,2.6-1.4,2.1-2.6,4.1-3.7,5.9-1.1,1.8-2.2,3.9-3.3,6.4-.3.5-1.6,3.1-3.9,7.7-4,7.7-7.2,14.3-9.6,19.6-2.4,5.4-3.6,9.6-3.6,12.7s-.3,2.7-1,3.9-1.4,1.8-2.4,1.8-1.2-.3-2-.9-1.5-1.3-2.1-2.1-.9-1.6-.9-2.3c0-1.7.7-4.4,2.1-8.1,1.4-3.7,2.7-6.8,4.2-9.3l4-7.7c-1.7-3.8-5-11.6-9.7-23.3l-3.3-8.2c-.3-.8-.6-1.6-.8-2.4-.2-.9-.3-1.5-.3-2,0-1.6.5-2.9,1.2-3.9s1.6-1.5,2.7-1.5,1.2.3,1.6.9.8,1.6,1.4,3.1c1.5,4.3,3.5,9.5,5.9,15.6,2.4,6.2,4.3,10.6,5.6,13.4l14.5-28.2c.8-1.5,1.8-2.7,2.9-3.6s2.3-1.3,3.5-1.3,1.2.4,1.6,1.2c.4.8.6,1.6.6,2.6s-.2,1.5-.5,2.2h0Z"/>
      </g>
      <g id="z">
        <path d="M1768,0v108h68V0h-68ZM1818.7,74.8c-.4.8-1,1.5-1.7,2.1s-1.5.8-2.3.8-1.4,0-2.2-.2c-.2,0-.5,0-1-.1s-.9-.1-1.3-.1c-1.9,0-3.9,0-6,.1-.7,0-1.7,0-3.1,0s-2.6,0-3.8,0c-1.7,0-3,0-4.1-.3s-2-.7-2.8-1.4-1.2-2-1.2-3.6.6-2.3,1.8-4.5c1.2-2.2,3.1-5.5,5.7-9.9,2.5-4.1,4.5-7.6,6-10.4s2.7-5.1,3.4-7c-.1,0-.6-.1-1.5-.1-1.7,0-4.2.2-7.6.5-.4,0-1.3.1-2.9.2-1.6.1-3.1.2-4.5.2s-2.1,0-2.7-.1-1-.5-1.5-1.1c-.4-.6-.6-1.7-.6-3.1s.2-2.5.7-3.7c.4-1.2,1.1-1.9,1.9-1.9h14.8c.9,0,1.7,0,2.7-.2.9-.1,1.5-.2,1.7-.2,1.8-.3,3.2-.4,4.3-.4s2,.7,2.4,2.1.7,2.9.7,4.5c-.5,2.2-1.1,4.4-2,6.5-.9,2.1-1.9,4.3-3.1,6.5s-3,5.4-5.5,9.7c-.5.9-1.1,2-2,3.3s-1.8,3.1-3,5.2c.9.3,2.1.4,3.7.4,2.3,0,4.7-.3,7.2-.8,2.5-.5,4.6-1.3,6.1-2.2.1,0,.2-.1.4-.2s.3,0,.4,0c.7,0,1.3.4,1.8,1.2.5.8.9,1.8,1.1,2.9s.4,2.1.4,3-.2,1.6-.6,2.5h0Z"/>
      </g>
      <g id="A">
        <path d="M33.6,143c-.6.4-1.8,2.7-3.6,7.1s-3.3,8.3-4.5,11.8h3.7c2.4.2,4.7.2,7,.2s4.3,0,5.7-.2c-1-2.9-2.4-6.4-4.4-10.6l-3.9-8.4ZM0,108v108h68v-108H0ZM54.1,192.6c-1.3,0-2.5-1.2-3.6-3.6s-1.9-4.9-2.5-7.6l-.4-1.4c-.8-2.7-1.3-4.5-1.7-5.5s-.9-1.8-1.5-2.2-1.5-.7-2.6-.7h-17.9c-.7,0-1.2,0-1.5.3-.3.2-.6.6-.9,1.1-.3.5-.7,1.6-1.1,3l-3.3,9.4c-.1,1.7-.4,3-1,4s-1.1,1.7-1.7,2c-.6.4-1.1.6-1.5.6-1.2,0-2-.3-2.6-.8s-.9-1.6-.9-3c0-2.4.6-4.5,1.7-6.5l1.1-3.3c1.2-3.6,2.2-6.6,3.1-8.8-.1-.3-.1-.8-.1-1.4,0-1.5.2-2.8.6-3.7s1.1-1.7,2.1-2.4l9.3-21.8c0-.1.1-.3.2-.5,0-.2.2-.4.3-.6,1.2-2.4,2.3-4.4,3.3-5.8s2-2.1,3.1-2.1c2.4,0,4.6,1.7,6.7,5.1,2,3.4,3.8,7.4,5.2,12,1.5,4.6,3.1,10.4,4.9,17.4,1.3,5,2.3,8.6,3,11s1.4,4,2.1,4.8c.1.2.3.3.4.5s.3.3.5.5c.5.7.9,1.2,1.2,1.5.2.4.4.8.5,1.3.1.5.2,1.3.2,2.3,0,3.2-1.5,4.7-4.5,4.7h0Z"/>
      </g>
      <g id="B">
        <path d="M113.6,162.5c-1.5-1.4-3.4-2.4-5.7-3.2-2.3-.7-4.5-1.1-6.7-1.1s-1.3.1-2,.3c-.7.2-1.6.6-2.8,1.1-1.4.6-2.6,1.1-3.7,1.4s-2.3.6-3.6.8v2.3c0,0-.2,2.4-.2,2.4v2.2c0,5.4.2,9.7.5,12.9l3.2-.2c4.6-.3,8.4-.8,11.6-1.5s5.8-2,8.2-4c2.3-2,3.5-4.9,3.5-8.8s-.8-3.5-2.3-4.9h0ZM100.9,148.3c4-2.5,6-4.4,6-5.8s-.7-.9-2.1-1.2-3.1-.4-5.2-.4-2.3,0-3.9.3-3.1.5-4.3.9c-1.3.4-1.9,1-2,1.7l-.3,7.7c.8,0,1.8-.2,3.2-.5s4.2-1.2,8.6-2.6h0ZM68,108v108h68v-108h-68ZM117.5,181.2c-2.6,3.5-6,6.1-10.2,7.8s-8.9,2.6-14.1,2.6-.4,0-.8-.1c-.4,0-.7-.1-1-.1s-.8.2-1.4.4c-.3.1-.6.2-.8.4-.3.1-.6.2-.9.2-.7,0-1.5-.2-2.3-.6s-1.6-1-2.3-1.8-.9-1.7-.9-2.8,0-1.8.2-4.6c.1-2.8.3-12.9.5-30.4,0-4.3.3-8.3.9-11.9s1.7-5.7,3.3-6.2c2.3-.8,4.9-1.3,7.5-1.7s5.2-.6,7.4-.6,2.9.4,4.4,1.1,2.9,1.9,4,3.3,1.6,3,1.6,4.9c0,3.5-1,6.8-3.1,9.8,3.7,1.4,6.6,3.6,8.8,6.5,2.1,2.9,3.2,6.5,3.2,10.8s-1.3,9.6-3.9,13.1h0Z"/>
      </g>
      <g id="C">
        <path d="M136,108v108h68v-108h-68ZM188.8,188.2c-2.3,1.5-5,2.5-8.2,3.1s-6.4.9-9.5.9c-6.6,0-12.2-1.7-16.6-5.1s-6.6-9.4-6.6-18,.4-6.1,1.1-9.2c.7-3.1,1.7-6.5,3-10.2.9-2.6,2.4-5.4,4.4-8.1s4.4-5.1,7.1-7.1c2.7-1.9,5.5-2.9,8.3-2.9s5.4.6,7.9,1.9c2.5,1.3,4.5,3.2,6.1,5.7s2.3,5.5,2.3,9-.1,1.9-.5,3c-.3,1.1-.8,2.1-1.4,2.9-.6.8-1.4,1.2-2.3,1.2s-1.3-.2-1.7-.6-.6-1-.7-1.6c-.1-.7-.2-1.6-.3-2.7-.1-2-.4-3.6-.8-4.9-.4-1.3-1.2-2.4-2.6-3.3s-3.4-1.4-6.1-1.4-6.8,1.7-9.4,5.1c-2.6,3.4-4.6,7.4-5.9,11.9-1.3,4.5-2,8.2-2,11.2s.8,5.3,2.3,7.5,3.5,3.7,5.9,4.8c2.4,1.1,4.9,1.7,7.5,1.7s4.9-.2,7.8-.6,5.1-1,6.9-1.7c1.2-1.1,2-1.9,2.6-2.3s1-.7,1.2-.7c1,0,1.9.5,2.5,1.4s.9,2.1.9,3.5c0,2.3-1.1,4.1-3.4,5.6h0Z"/>
      </g>
      <g id="D">
        <path d="M242,144c-3.5-2.2-7.1-3.3-10.5-3.3s-2.7,0-4.5.1-3.2.2-4.1.3c-.5,2.9-.8,6.1-.8,9.6v8.4c0,10.9.4,18.5,1.1,22.8.1,0,.4.1,1,.2.6,0,1.2,0,1.9,0h6.1c3.2,0,6.5-.6,9.9-1.8s6.3-3.1,8.6-5.7,3.5-5.8,3.5-9.6-1.1-8.3-3.4-12.1-5.2-6.7-8.8-8.9h0ZM204,108v108h68v-108h-68ZM255.7,178.9c-3.2,4.2-7.2,7.4-11.9,9.5s-9.1,3.2-13.4,3.2-6.4-.2-8-.4c-.4.1-.9.3-1.6.6-.6.3-1,.4-1.2.4-1.1,0-1.9-.6-2.6-1.9s-1.1-2.8-1.3-4.7-.3-3.6-.3-5.2l.7-40.3c0-3.2.7-5.3,2.1-6.5,1.4-1.2,3.1-1.8,5-1.8h7.1c4.2,0,8.7,1.4,13.4,4s8.7,6.5,11.9,11.4c3.2,4.9,4.8,10.3,4.8,16.4s-1.6,11.1-4.8,15.3h0Z"/>
      </g>
      <g id="E">
        <path d="M272,108v108h68v-108h-68ZM324.8,140.9c-.7,1.2-1.4,1.8-2.3,1.8-14.8,0-24.6-.2-29.4-.3,0,1,0,3-.1,6,0,3.1-.1,5.2-.1,6.4l18.3-.2c1.1,0,2,.4,2.7,1.2s1,2,1,3.7-.1,1.1-.4,1.9-.6,1.5-1.1,2-1,.9-1.7.9c-6.1,0-10.9,0-14.5,0-.8,0-1.6,0-2.5,0s-1.4,0-1.7.2l.3,15.7c2.1,0,4.6,0,7.2.2s4.5.2,5.4.2c6,.3,10.6.4,14,.4s3.2,1.9,3.2,5.7-.5,3.2-1.4,4-2.2,1.2-3.7,1.2-3.4-.1-6-.4c-1.9-.2-3.6-.3-5.4-.5-1.7-.1-3.9-.2-6.6-.2s-2.7,0-4.4.2c-2.7.2-4.4.2-5.1.2-1.3,0-2.3-.6-3.1-1.7s-1.2-2.7-1.1-4.5l.3-21.7c0-.5,0-1-.2-1.6,0-.1,0-.4-.1-.8s-.1-.8-.1-1.2c0-.8.2-1.7.6-2.7-.2-5-.2-10.2-.2-15.8s0-3.1.2-4.3.5-2.2,1-3,1.5-1.3,2.7-1.3,1.1,0,1.7.1,1,.2,1.2.2c1.4.3,2.5.4,3.3.4h11.7c5.7-.1,9.6-.1,11.7-.1s2.9,0,3.6.2,1.3.5,1.6,1.1.5,1.6.5,3-.3,2.4-1,3.6h0Z"/>
      </g>
      <g id="F">
        <path d="M340,108v108h68v-108h-68ZM393,142.7c-.5.9-1.5,1.3-2.7,1.3s-2.5-.5-6.1-1.4c-.2,0-1.4.1-3.5.3s-7.1.3-15.2.3-3-.1-3.3-.3c-.3,3.1-.5,7.7-.5,13.8,0,.2.8.2,2.2.2s2.4,0,3.9-.2,2.4-.2,2.9-.3l9.2-1.4c.9-.3,1.9-.5,2.9-.5,1.9,0,2.9,1.6,2.9,4.8s-.2,2.7-.6,3.4-1,1.2-1.7,1.5-1.9.5-3.4.6l-1.2.2-10.1,1.2c-.6,0-1.7.2-3.2.4s-2.8.3-3.7.3l.2,18.1c0,4.6-1.1,6.8-3.4,6.8s-2.7-.6-3.4-1.8-1-2.9-1-5.1.1-2.4.3-4.1c.1-1,.2-1.8.2-2.2l.5-34.5c0-2.8.3-5.5.9-8s1.6-3.8,3.2-3.8,2,.2,3.7.5,3,.5,3.8.5h18c1.8-.4,3.2-.5,4.1-.5s1.5.3,2.2,1,1.4,1.5,2,2.4.8,1.9.8,2.8c0,1.7-.3,2.9-.8,3.8h0Z"/>
      </g>
      <g id="G">
        <path d="M408,108v108h68v-108h-68ZM461.5,168.8c0,1.2,0,2.8,0,5,0,1.7-.2,3.3-.2,5s0,4.6.2,7.2c0,1.8-.1,3.1-.3,4s-.5,1.5-.9,1.8-.8.4-1.5.4-1.2-.2-1.6-.7-.8-.9-1.2-1.4-.6-.9-.8-1.2c-1.6.8-3.5,1.5-5.7,2.3s-4.3,1.1-6.4,1.1c-7.5,0-13.1-2.4-16.8-7.3s-5.6-11.9-5.6-21.1,1-8.1,3.1-13.3,4.9-9.6,8.6-13.4,7.8-5.6,12.5-5.6,5.5.5,7.9,1.6c2.4,1,4.4,2.5,5.8,4.5s2.2,4.2,2.2,6.8-.2,3.5-.6,4.4-1,1.5-1.7,1.5-.5-.2-.8-.7-.7-.9-1-1.5c-.7-1.1-1.1-1.8-1.4-2-3.4-3.5-7-5.3-10.9-5.3s-5.3,1.3-8,3.9-4.9,5.8-6.6,9.6-2.6,7.4-2.6,10.8.7,7.4,2.2,10.1,3.5,4.7,6,6,5.5,2,8.9,2,5.2-.3,6.7-.8,2.6-1.3,3.1-2.4.8-2.5.8-4.4v-5.9c-1.8.2-4.1.3-7,.3s-1.5-.2-2.3-.7-1.4-1.1-1.9-1.9-.8-1.8-.8-2.8c0-1.8.4-3.1,1.3-3.8s2-1,3.4-1,2.5,0,4.4.2c.9,0,2.1-.1,3.8-.4,1.6-.3,2.9-.4,4-.4s1.6.5,2.4,1.6,1.1,2.1,1.1,3.3c0,2.4-.6,3.9-1.8,4.6h0Z"/>
      </g>
      <g id="H">
        <path d="M476,108v108h68v-108h-68ZM529.5,186.9c0,1.5-.3,2.7-1,3.7-.7,1-1.5,1.5-2.6,1.5s-2.3-.5-2.9-1.6-.9-2.9-.8-5.7l.3-17.8h-9.9c-4.3,0-7.5,0-9.6,0-2,0-3.9.2-5.6.3.2,12.6.2,18.9.2,18.8v1.9c0,.7-.2,1.3-.7,1.9s-1,1.1-1.7,1.4-1.2.5-1.6.5c-1.3,0-2.2-.7-2.7-2s-.7-3.2-.7-5.6,0-4.1.1-10c0-3.2.1-5.3.1-6.5,0-2.7,0-6.2-.1-10.7v-8.2c0-5.8.2-10,.7-12.7.5-2.7,1.5-4.1,2.9-4.1s1,.3,1.5,1,1,1.4,1.3,2.4.5,1.9.5,2.7v9.7c0,2.2,0,5.4,0,9.6h24.9c-.1-9.9-.2-16-.2-18.5,0-2.3.3-4.1.7-5.3s1.2-1.8,2.5-1.8,2.5.8,3,2.3c.5,1.5.8,4,.8,7.3s0,1.1,0,1.6c0,.8,0,2.4,0,4.9,0,2.5,0,5.8,0,10,.2.5.4,1,.6,1.7s.3,1.4.3,2.1l-.6,3.2c.3,7.8.4,15.1.4,22h0Z"/>
      </g>
      <g id="I">
        <path d="M544,108v108h68v-108h-68ZM590.3,140.6c-.6.9-1.3,1.6-2.1,2s-1.6.7-2.3.7-.6-.2-.9-.4c-.4-.3-.8-.4-1.2-.4h-3.5c-.7,7.1-1,16.1-1,27s.2,8.8.5,12.3h3.6c.5,0,1.1,0,2,0,.7.5,1.2,1.2,1.6,2.2.4.9.6,2,.6,3.2s-.2,1.6-.6,2.3-.9,1.2-1.5,1.6-1.2.6-1.8.6h-12.3c-.8,0-1.6-.2-2.6-.4s-1.9-.8-2.7-1.5c-.8-.7-1.2-1.7-1.2-2.8s.3-2.7,1-3.8,1.5-1.7,2.5-1.7l4.1.3v-2.2c0-4.7.1-10.7.4-18.2.3-7.5.6-13.4.9-17.9h-2.7c-.9,0-1.7,0-2.4-.2s-1.2-.5-1.6-1.2-.7-1.6-.7-3v-.2c0-2,.4-3.3,1.3-4.2.8-.8,2.3-1.2,4.5-1.2h10.9c.4,0,1.2-.2,2.5-.4,1.1-.2,1.8-.3,2-.3.5,0,1,.3,1.6.9s1.1,1.3,1.5,2c.4.8.6,1.4.6,1.9,0,1.3-.3,2.3-.9,3.2h0Z"/>
      </g>
      <g id="J">
        <path d="M612,108v108h68v-108h-68ZM661.2,150.4c0,3.1-.1,5.4-.1,6.9,0,3.4-.2,7.7-.7,12.7-.5,5.1-.9,8.1-1.4,9.1-4.5,8.7-10.8,13-18.9,13s-2.6-.2-4-.7-2.7-1.2-3.8-2.4-1.6-2.8-1.6-4.7.1-1.7.5-2.5c.3-.9.8-1.6,1.4-2.2.6-.6,1.3-.9,2.1-.9s.9.1,1.3.4c.4.3.9.7,1.3,1.2.7.7,1.3,1.2,1.9,1.6.6.4,1.3.6,2.2.6,1.9,0,3.8-.5,5.7-1.4,1.9-.9,3.5-2.2,4.7-3.8,1.2-1.6,1.9-3.3,1.9-5s0-5.2,0-8.4,0-5.6.1-7.4c.1-7.4.2-13.2.2-17.6s.3-3.6,1-5c.7-1.4,1.7-2.1,3.1-2.1s2.1,1,2.5,3.2c.5,2.1.7,5.1.7,9s0,3.5-.1,6.5h0Z"/>
      </g>
      <g id="K">
        <path d="M680,108v108h68v-108h-68ZM729.2,194.3c-.9,0-1.7-.9-2.5-2.7s-1.8-4.3-2.9-7.5c-.6-1.7-1.7-4.5-3.4-8.5s-3.4-7.8-5.1-11.5c-1.7-3.7-3-6.2-3.9-7.5-1.3,1.3-2.9,3.1-4.7,5.4-1.8,2.3-3.3,4.3-4.4,6v1.8c0,1.5,0,4,.2,7.3v2.7c.1,0,.4,6.2.4,6.2,0,.9-.1,1.7-.5,2.3-.4.7-.9,1.2-1.4,1.6s-1.1.5-1.7.5c-1.8,0-3-.9-3.6-2.7-.6-1.8-.9-4.4-.9-7.9l.4-15.9c.3-12.6.5-22.3.8-29,0-1.4.4-2.6.9-3.7.6-1.1,1.4-1.6,2.6-1.6s1.5.4,2.1,1.2.9,2,.9,3.4l-.6,16.3v3.1c0,1.6,0,2.4.1,2.6.7-1.1,1.6-2.4,2.9-3.9,1.5-1.8,2.5-3.2,3.1-4.1.8-1.5,1.4-2.6,2-3.3s1.3-1,2.3-1.2l2.6-3.6c1.2-1.7,2.1-3,2.8-3.9.4-.5,1-1.3,1.8-2.5.9-1.4,1.7-2.4,2.4-3s1.7-1,3-1c.3,0,.7.2,1.1.5.4.3.8.8,1.1,1.5.3.7.5,1.5.5,2.5,0,1.5-.2,2.7-.6,3.8s-1,2-1.6,2.8-1.6,1.8-2.9,3l-1.5,1.5c-.8.8-1.6,1.7-2.3,2.5s-1.4,1.8-2,2.7c1.3,2.3,2.9,5.3,4.6,9l.4.9,5.2,11.3,1.3,2.7c1.6,3.3,2.8,6.1,3.7,8.4s1.4,4.1,1.4,5.5c0,4-1.3,6-4,6h0Z"/>
      </g>
      <g id="L">
        <path d="M748,108v108h68v-108h-68ZM798.7,189c-.4.9-.9,1.6-1.6,2.2s-1.2.8-1.8.8c-1.9,0-4.1,0-6.7-.2-.6,0-1.7,0-3.5-.2s-3.4,0-4.9,0-2,0-3.2.2c-.3,0-.9,0-1.7.2s-1.6,0-2.4,0-3.2-.2-6.6-.5c-.4,0-.7,0-1-.2-.2-.1-.4-.4-.6-.9s-.2-1.2-.2-2.2c0-1.4,0-2.9.2-4.5.1-1.6.3-3.3.5-5.3l.3-3.1c0-2.6,0-5.5-.1-8.7s-.2-5.3-.2-6.3c-.3-6.6-.4-11.6-.4-15s0-6.3.2-8.1.5-3.1.9-4,1.2-1.3,2.2-1.3,1.2.3,1.8.8,1.1,1.2,1.5,2.1c.4.9.6,1.8.6,2.7,0,1.5-.1,3.2-.3,5l-.2,2.3c0,6.2,0,10.9.1,14.1l.6,22c1.2,0,3,.1,5.2.2,5.5.3,9.8.4,12.8.4s.9,0,1.9-.2c.4,0,1.6-.2,3.9-.5.9,0,1.7.6,2.3,1.7s1,2.4,1,3.8-.2,1.5-.6,2.4h0Z"/>
      </g>
      <g id="M">
        <path d="M816,108v108h68v-108h-68ZM874.1,149.1c-.2,3.5-.3,6.2-.4,8.2l-.8,31c0,.8-.2,1.6-.6,2.2s-.8,1-1.2,1.3-.8.4-1,.4-.8-.2-1.6-.5-1.5-.9-2.2-1.8-1-1.9-1-3.3,0-1.5.2-2.2c.1-.7.4-1.6.7-2.5,0-.2.2-.7.4-1.5s.3-1.5.3-2.2l.5-27.8c-.5.6-1,1.8-1.6,3.7-.1.2-.3.8-.6,1.7-.3.9-.7,1.7-1.1,2.2l-1.8,3.3-2.7,4.9c-1.9,3.6-3.5,6.4-4.7,8.5s-2.5,3.8-3.8,5.2-2.6,2.1-3.8,2.1c-1.1,0-2.6-1.7-4.4-5-1.8-3.3-3.7-7.1-5.6-11.3l-5.8-12.6c0,.8-.1,2.1-.1,4s.1,5.7.3,10.9c.2,5.7.3,9.8.3,12.3.3,1.7.4,2.7.5,3.1s.1.6.1.6c0,4.9-1.1,7.4-3.2,7.4s-2-.3-2.6-.8-.9-1.2-1.1-2-.2-1.9-.2-3.2,0-1.8.2-3.3c0-.4,0-.8.1-1.2,0-.5,0-1,0-1.5.1-4.7.1-9,.1-12.9.1-9.7.3-16.8.5-21.1s.7-7.8,1.4-10.1c.7-2.3,1.9-3.5,3.5-3.5s1.7.5,2.3,1.6c.6,1.1.9,2.2.9,3.5v.5c.4,3,2.2,8.2,5.4,15.7,1.1,2.6,2.7,6,4.8,10.2,2,4.2,3.4,6.7,4,7.5.5,0,1-.3,1.6-.9s1.3-1.7,2.3-3.3c.9-1.4,3.7-7.5,8.7-18.1,3-6.5,4.8-10.3,5.5-11.7.2-1.2.7-2.2,1.5-3.2.8-1,1.5-1.5,2.1-1.5,1.3,0,2.2.5,3,1.5s1,2.4,1,4.1c0,3-.1,6.8-.4,11.3h0Z"/>
      </g>
      <g id="N">
        <path d="M884,108v108h68v-108h-68ZM937,155.8c-.4,6.2-1.1,14.1-2,23.8l-.2,1.6v1.3c0,2.1-.2,3.9-.5,5.4s-.8,2.7-1.6,3.7c-.8,1-2,1.5-3.6,1.5s-1.2-.3-1.9-.9-1.1-1.1-1.3-1.7c-3.8-4.8-7.5-10.2-11.2-16.5-3.7-6.2-6.8-12.3-9.2-18.2-.1,2.3-.2,6.8-.2,13.6s0,4.8,0,6.3,0,2.7,0,3.5c0,.8,0,2,0,3.6,0,3.1-.3,5.4-.8,6.9s-1.4,2.2-2.7,2.2-2.2-.4-2.7-1.2c-.5-.8-.7-1.9-.7-3.4s0-1.6.1-3.1l.2-16.5c.2-4.7.4-8.2.4-10.6,0-2.4,0-5,0-7.8s0-1.5,0-2c-.1-3.2-.1-6.1-.1-8.7s.1-1.6.4-2.6c.2-1,.6-1.8,1-2.6.5-.7,1-1.1,1.6-1.1,1.7,0,3,.8,4,2.5.9,1.7,1.7,4,2.2,7,.9,4.6,2.9,9.8,5.8,15.7s6,11,9,15.5,4.9,6.8,5.4,6.8.3-.6.4-1.8.3-4.5.5-10,.5-14.4.8-26.6c0-2.8.2-4.9.4-6.3s.5-2.5,1.1-3.1c.5-.7,1.3-1,2.3-1s1.7.1,2.2.3c.5.2.8.7,1.1,1.5.2.8.4,2,.4,3.7,0,6.6-.2,13-.7,19.2h0Z"/>
      </g>
      <g id="_Ñ">
        <path d="M952,108v108h68v-108h-68ZM971.9,124.9c.9-1.5,2-2.6,3.4-3.5s2.8-1.3,4.3-1.3,3.2.4,4.5,1.1c1.2.7,2.5,1.7,3.9,3,.9.8,1.7,1.5,2.2,1.9s1.2.6,1.8.6c.9,0,1.6-.2,2.1-.6.5-.4,1-1,1.6-1.8.5-.7.8-1.1,1.2-1.4.3-.3.8-.4,1.3-.4.8,0,1.3.3,1.7.9s.6,1.4.6,2.3c0,1.6-.3,3.1-1,4.6-.7,1.5-1.6,2.8-2.9,3.8-1.3,1-2.8,1.5-4.5,1.5s-2.1-.3-3.2-1c-1.1-.7-2.3-1.6-3.7-2.8-1.3-1.1-2.4-1.9-3.2-2.4s-1.6-.8-2.4-.8-1.7.3-2.3.8c-.6.6-1.2,1.4-1.8,2.4-.4.7-.8,1.2-1,1.5-.3.3-.6.5-.9.5-.8,0-1.5-.4-2-1.2-.6-.8-.9-1.7-.9-2.9,0-1.8.4-3.4,1.3-4.9h0ZM1005,166.6c-.4,6.2-1.1,14.1-2,23.8l-.2,1.6v1.3c0,2.1-.2,3.9-.5,5.4-.3,1.5-.8,2.7-1.6,3.7-.8,1-2,1.5-3.6,1.5s-1.2-.3-1.9-.9c-.7-.6-1.1-1.1-1.3-1.7-3.8-4.8-7.5-10.2-11.2-16.5-3.7-6.2-6.8-12.3-9.2-18.2-.1,2.3-.2,6.8-.2,13.6s0,4.8,0,6.3,0,2.7,0,3.5c0,.8,0,2,0,3.6,0,3.1-.3,5.4-.8,6.9-.5,1.5-1.4,2.2-2.7,2.2s-2.2-.4-2.7-1.2c-.5-.8-.7-1.9-.7-3.4s0-1.6.1-3.1l.2-16.5c.2-4.7.4-8.2.4-10.6,0-2.4,0-5,0-7.8s0-1.5,0-2c-.1-3.2-.1-6.1-.1-8.7s.1-1.6.4-2.6c.2-1,.6-1.8,1.1-2.6.5-.7,1-1.1,1.6-1.1,1.7,0,3,.8,4,2.5.9,1.7,1.7,4,2.2,7,.9,4.6,2.9,9.8,5.8,15.7,2.9,5.8,6,11,9,15.5s4.9,6.8,5.4,6.8.3-.6.4-1.8c.1-1.2.3-4.5.5-10s.5-14.4.8-26.6c0-2.8.2-4.9.4-6.3s.5-2.5,1.1-3.1c.5-.7,1.3-1,2.3-1s1.7.1,2.2.3c.5.2.8.7,1.1,1.5.2.8.4,2,.4,3.7,0,6.6-.2,13-.7,19.2h0Z"/>
      </g>
      <g id="O">
        <path d="M1064.8,143.5c-2.5-1.8-5.3-2.6-8.5-2.6s-6.9.8-10.1,2.3-5.7,3.8-7.6,6.8c-1.9,3-2.9,6.8-2.9,11.1s.8,6.9,2.5,10.3,3.9,6.2,6.7,8.4c2.8,2.2,5.7,3.2,8.7,3.2s6.5-.8,9.4-2.4c2.9-1.6,5.3-4,7-7.1,1.8-3.1,2.7-6.8,2.7-11.2s-.7-8.1-2.1-11.4c-1.4-3.2-3.3-5.8-5.8-7.5h0ZM1020,108v108h68v-108h-68ZM1075.2,177.7c-2.3,4.6-5.3,8.2-9.1,10.8s-7.8,3.9-12.2,3.9-8.4-1.5-12.2-4.5c-3.8-3-6.8-6.8-9.1-11.5-2.2-4.7-3.4-9.3-3.4-13.9,0-7.1,1.4-13,3.8-17.5,2.4-4.6,5.6-8,9.5-10.1,3.9-2.1,8.2-3.2,12.8-3.2s9.2,1.2,12.6,3.6c3.5,2.4,6,5.9,7.8,10.5s2.6,10,2.6,16.3-1.1,11-3.4,15.7Z"/>
      </g>
      <g id="P">
        <path d="M1131.8,144c-2-1.7-5.1-2.6-9.1-2.6s-4,.3-6.5,1-4.1,1.4-4.7,2.1c0,0,0,.9-.2,2.5-.1,1.6-.4,6.5-.6,14.7,1,.3,1.8.5,2.5.7.7.2,1.5.2,2.4.2,3.3,0,6.5-.5,9.4-1.4,3-.9,5.4-2.2,7.1-4,1.8-1.8,2.7-3.9,2.7-6.3s-1-5.2-3-6.9h0ZM1088,108v108h68v-108h-68ZM1137.3,161.9c-2.3,3.6-5.6,6.3-9.9,8.1s-9.2,2.6-15,2.6-1.1,0-1.7-.3c0,.3,0,.9,0,1.8-.1,1.5-.1,3.2-.1,5.1s.1,4.8.4,8.8c0,1.4-.4,2.4-1.1,2.9-.7.5-1.4.7-2.2.7-1.2,0-2.1-.1-2.7-.4s-1.1-1.2-1.5-2.7-.4-4-.1-7.3l1-10.2c-.2-.4-.4-.9-.6-1.6s-.3-1.2-.3-1.6c0-.9.1-2.2.4-3.7.3-1.5.4-2.9.4-4.2v-5.5c0-3.9.1-7.1.3-9.7s.6-4.7,1.3-6.4,1.7-2.5,3-2.6c.4,0,.8.4,1.4,1.1.1,0,.3.3.6.6.3.3.5.4.8.4.9-.8,2-1.7,3.4-2.5s3-1.5,4.7-2c1.7-.5,3.3-.8,4.8-.7,6,0,10.2,1.3,12.6,4,2.4,2.7,3.7,6.6,3.7,11.8s-1.2,10-3.5,13.6h0Z"/>
      </g>
      <g id="Q">
        <path d="M1197.9,139.8c-2.8-2.2-5.7-3.3-8.7-3.3s-6.6.8-9.5,2.6c-2.9,1.7-5.2,4.2-6.9,7.5-1.7,3.3-2.6,7.1-2.6,11.6s.7,8,2.1,11.1c1.4,3.1,3.3,5.5,5.8,7.2,2.5,1.7,5.3,2.5,8.5,2.5s7.6-.9,10.7-2.6c-2.4-3.2-4.7-5.7-6.7-7.6v-2.4c0-1.5.2-2.6.7-3.5.5-.9,1.1-1.3,1.8-1.3,1.6,0,3,.6,4.4,1.9,1.3,1.2,2.8,2.9,4.4,5,.5.8,1,1.3,1.3,1.7l.7.7c2.2-3.2,3.4-7,3.4-11.6s-.8-7.2-2.5-10.7-3.9-6.4-6.7-8.6h0ZM1156,108v108h68v-108h-68ZM1215.8,195.4c-.5.8-1.3,1.1-2.3,1.1s-1.7-.2-2.6-.5-1.6-1-2-1.8c-.4-.7-1.2-2.1-2.4-4.1s-2.6-4.2-4.1-6.5c-2.2,1.6-4.7,2.7-7.3,3.5s-5.3,1.2-8,1.2c-4.9,0-9.1-1.2-12.7-3.7s-6.3-6-8.2-10.7c-1.9-4.6-2.8-10.1-2.8-16.5s1.2-10.9,3.5-15.4c2.4-4.5,5.5-8.1,9.4-10.6,3.9-2.5,8.1-3.8,12.5-3.8s8.5,1.5,12.4,4.5c3.9,3,7,6.8,9.3,11.5s3.5,9.3,3.5,13.9c0,8-1.8,14.7-5.3,19.9,2.2,3.2,4,6.2,5.6,9.1,1.6,2.8,2.3,4.8,2.3,6s-.2,2.4-.8,3.1h0Z"/>
      </g>
      <g id="R">
        <path d="M1263.9,141.6c-1.4-.9-3.1-1.4-5.1-1.4s-3.8.3-6,1-4.2,1.6-5.9,2.8-2.5,2.5-2.5,3.9v1.5c-.1.7-.1,1.2-.1,1.5,0,1.7.1,3.3.4,4.9,2.7-.5,5.7-1.3,9.1-2.4s6.3-2.2,8.7-3.5,3.6-2.5,3.6-3.7c0-2.2-.7-3.7-2.1-4.6h0ZM1224,108v108h68v-108h-68ZM1277.6,187.3c-.1,1.5-.5,2.8-1,3.8s-1.3,1.5-2.4,1.5-2.1-.5-2.5-1.5-.7-2.5-.7-4.3v-1.2c0-1.6,0-2.8,0-3.6v-3.9c0-1.4,0-2.7,0-3.7,0-1-.2-2.2-.5-3.6-.8-1.7-2.1-3-3.9-4.1-1.8-1.1-3.8-1.8-5.9-2.3s-4.3-.7-6.3-.7-2.4.3-4.4.8-3.6,1.1-4.9,1.7c0,2.9.3,6.3.7,10.1s.8,6.8,1.3,9.1c0,1.5-.4,2.7-1.1,3.6-.8.9-1.8,1.3-3,1.3s-1.8-.6-2.5-1.8-1.1-2.5-1.1-3.9,0-1.2.2-2.3c.1-1,.2-1.8.2-2.2,0-.8-.1-2.3-.4-4.6-.4-3.3-.6-6.7-.9-10.1s-.3-7.2-.3-11.5.2-6,.6-8.6,1.1-4.5,2.3-5.7c5.7-5.6,11.6-8.3,17.7-8.3s4.5.5,6.5,1.5c2,1,3.7,2.5,5,4.6s1.9,4.6,1.9,7.6-.6,5-1.8,6.9c-1.2,1.9-2.7,3.4-4.5,4.6,3.4,1.1,5.9,2.8,7.6,5.1,1.7,2.3,2.9,5,3.5,8.1s.9,6.9.9,11.5,0,4.5-.2,6h0Z"/>
      </g>
      <g id="S">
        <path d="M1292,108v108h68v-108h-68ZM1340.2,184.3c-2.5,2.6-5.4,4.5-8.7,5.8-3.3,1.2-6.1,1.9-8.5,1.9s-6.2-.7-8.9-2.1-4-4.2-4-8.4.1-1.5.5-2.6.7-2,1.2-2.8c.5-.8,1-1.2,1.6-1.2s.2.2.5.5c.3.3.5.7.7,1.2,1,1.9,1.9,3.3,2.7,4.1s1.6,1.3,2.6,1.5,2.3.3,4.2.3,4-.4,6.1-1.2,4-1.8,5.5-3,2.2-2.3,2.2-3.3-.5-1.9-1.4-2.6c-.9-.8-2.1-1.4-3.6-1.9s-3.5-1.1-6-1.9c-3.9-1.1-7.1-2.2-9.6-3.2s-4.7-2.5-6.5-4.3c-1.8-1.9-2.7-4.3-2.7-7.2,0-4.4,1-8.3,3.1-11.7s4.8-5.9,8.1-7.7c3.3-1.8,6.6-2.7,10.1-2.7s4.1.5,5.8,1.5,3,2.4,3.9,4.1c.9,1.7,1.4,3.5,1.4,5.5s-.2,4.5-.7,6.2-1.3,2.5-2.7,2.5-1.5-.4-1.7-1.2c-.2-.8-.4-1.9-.4-3.4,0-2.2-.6-3.7-1.8-4.5s-2.9-1.3-5.2-1.3-3.6.6-5.8,1.7-4.1,2.6-5.7,4.4-2.4,3.7-2.4,5.5.5,2.3,1.5,3.1,2.2,1.5,3.7,2,3.6,1.1,6.3,1.8c3.9,1,7,1.9,9.5,2.9s4.5,2.3,6.3,4.3c1.8,1.9,2.6,4.4,2.6,7.6s-1.2,7.1-3.8,9.7h0Z"/>
      </g>
      <g id="T">
        <path d="M1360,108v108h68v-108h-68ZM1412.5,139.8c-.4,1-.9,1.8-1.6,2.5s-1.3,1.1-1.9,1.1-1.2-.3-2.2-1c-.5-.4-.9-.6-1.3-.8s-.7-.3-1.1-.3c-3.4,0-5.8.1-7.4.3l1.4,39.8c.5,2.7.8,4.6.9,5.7,0,1.3-.1,2.2-.3,2.8s-.5,1-1,1.3-1.2.4-2.3.4-2.2-.3-2.9-.8c-.6-.5-1.1-1.3-1.3-2.3s-.3-2.3-.3-4v-1.5c0-.3,0-.8,0-1.4l-1.3-39.3c-.8,0-1.7.2-2.9.4-3.5.5-6,.7-7.7.7s-2.7-.3-3.4-.9-1.1-1.6-1.1-2.9c0-2.5.5-4.3,1.7-5.2,1.1-1,2.5-1.5,4.2-1.5l20.6-.2,7.8-.5c1.2,0,2.2.5,2.9,1.5s1.1,2.2,1.1,3.6-.2,1.5-.6,2.5h0Z"/>
      </g>
      <g id="U">
        <path d="M1428,108v108h68v-108h-68ZM1481.3,137.7c0,.1,0,.2,0,.3l-.2,2c-.7,3-1.2,7.5-1.7,13.5s-.7,11.9-.7,17.7,0,4,.2,6.1.3,3.3.3,3.6c.3,3.2.4,5.5.4,7.1s-.4,2.1-1.2,2.8-1.8,1-3,1-2-.5-2.5-1.6-.9-2.9-.9-5.4c-1.2,1.7-2.6,3.1-4.3,4.2-1.7,1.2-3.4,2-5.1,2.6-1.7.6-3.3.9-4.7.9-5.7,0-9.7-3-11.9-8.9-2.3-5.9-3.4-13.1-3.4-21.6v-1.5c0-7.1.4-13.6,1.2-19.6.8-6,2.4-9,4.9-9s2.6,1.4,2.6,4.3-.1,4.3-.4,7.2-.5,4.6-.5,5c-.6,5.6-.9,9.6-.9,11.9,0,6.6.6,12.1,1.9,16.5,1.3,4.4,3.9,6.6,7.7,6.6s6.6-1,8.9-3c2.3-2,3.5-4.7,3.7-8.2l1.5-24.6c.2-4.1.5-7.3.9-9.7s1-4.1,1.8-5.2,1.7-1.6,2.8-1.6,1.4.5,1.9,1.7.8,2.5.8,4.2,0,.4,0,.5h0Z"/>
      </g>
      <g id="V">
        <path d="M1496,108v108h68v-108h-68ZM1552.1,140.4c-3,5.3-7.5,13.8-13.5,25.6-6,11.7-9.7,19.3-11.2,22.8-.5,1-.9,1.8-1.3,2.2-.3.4-.8.8-1.5,1.1-.7.3-1.7.4-3,.4s-1.9-4.1-4.4-12.3-4.8-16.7-7.1-25.4-3.3-14.3-3.3-16.7.2-2.7.5-3.7c.3-1,1.1-1.5,2.2-1.5s1.4.4,2.1,1.1,1.2,1.6,1.5,2.7c1.4,8.1,5.1,22.6,11.2,43.7.3-.7,1.8-3.9,4.6-9.5l8.3-17.1c.6-1,1.6-3.1,3.1-6.3,2.4-5,4.5-8.9,6.1-11.7,1.6-2.8,3.1-4.2,4.4-4.2s.6.2,1,.5.7.9.9,1.6c.3.7.4,1.6.4,2.6s-.4,2.4-1.1,4.1h0Z"/>
      </g>
      <g id="W">
        <path d="M1564,108v108h68v-108h-68ZM1626.5,138.5c-.2.5-.6,1-.9,1.5-.4.5-.6.9-.8,1.2-1.9,3.2-3.7,7.2-5.4,12.2-1.7,5-3.7,12.3-5.9,22.2-.9,4.4-2.1,8.2-3.3,11.6s-2.8,5-4.6,5-1.6-.4-2.1-1.2c-.6-.8-1-1.7-1.3-2.9s-.6-2.8-1-4.9l-.2-1.3c-.9-4.8-1.6-8.5-2-11.1-.4-2.6-.8-5.3-1.1-8-.4-3.1-.9-5.8-1.3-8.2-.7,1.9-1.5,4.7-2.5,8.3-1,3.6-1.6,5.8-1.8,6.6s-.8,2.8-1.6,5.8c-.8,3.1-1.6,5.6-2.2,7.7-.6,1.7-1.5,3.7-2.7,6.2-1.2,2.5-2.2,3.7-2.9,3.7-2.3,0-3.8-1.7-4.4-5.1-.7-5.1-1.6-10.3-2.6-15.5-1-5.2-2.3-11.8-4-19.6-.4-1.6-.7-3.1-.9-4.5-.3-1.4-.5-2.6-.8-3.7-.3-1.2-.5-2.4-.7-3.6-.2-1.2-.3-2.2-.3-2.9s.1-1.4.4-2.3c.3-.9.7-1.7,1.2-2.4s1.1-1,1.8-1,1.6.5,2.1,1.6c.6,1.1,1,2.4,1.3,3.9.3,1.5.6,3.5,1,5.9.5,2.8.7,4.4.8,4.9.6,2.7,1.4,5.8,2.4,9.2.9,2.8,1.5,5.1,1.9,7s.6,4,.6,6.3.3,3.3.9,4.8l2.1-6.2,1.6-5.1c2.6-8.3,4.8-14.7,6.5-19.2,1.7-4.5,3.2-6.8,4.3-6.8s1.5.9,2.2,2.7,1.2,4,1.6,6.7c.4,2.6,1,6.2,1.6,10.7.4,2.8.9,6.1,1.8,9.9.7,3.6,1.1,6.1,1.3,7.4l2.9-10.5c1.8-7.1,4.5-15.6,8.2-25.6l.7-1.9c.9-2.2,1.6-4,2.3-5.3.7-1.3,1.5-1.9,2.4-1.9s1.3.3,1.9.8c.6.6,1.1,1.3,1.4,2.2s.5,1.7.5,2.5-.1,1.4-.4,2h0Z"/>
      </g>
      <g id="X">
        <path d="M1632,108v108h68v-108h-68ZM1680.8,191.7c-.4.7-1,1.1-1.9,1.1-1.9,0-3.6-.7-5-2.2s-2.8-3.3-3.9-5.7c-1.2-2.4-2.7-5.9-4.5-10.5-.1-.3-.3-.6-.4-1s-.3-.8-.5-1.2c-.2.7-.6,1.7-1.3,3-.6,1.3-1,2.1-1.2,2.4-1,2-1.8,3.6-2.3,4.8s-.8,2.1-.8,2.7c0,2.2-.2,4-.7,5.3-.5,1.3-1.4,2-2.8,2s-2.5-.7-3.2-2c-.7-1.3-1.1-3-1.1-5.1s.5-2.5,1.5-4.9c1-2.4,2.5-5.7,4.4-9.8.3-.8.8-1.7,1.3-2.8.5-1.1.9-2,1.1-2.5l1.8-4.1c-.2-.5-.5-.9-.8-1.3-.1-.2-.5-.8-1.1-1.9s-1.3-2.5-2.1-4.3c-.2-.5-.4-.8-.6-1.2-1.7-3.2-3.1-6.1-4.3-8.8-1.2-2.7-1.7-4.9-1.7-6.8s.3-2.1.9-3.2,1.2-1.7,1.8-1.7c1.2.2,2.6,1.5,4,4.1s3.1,6.1,5,10.7c1.5,3.5,2.5,5.7,3,6.5,1.1-2,2.1-4.1,3.1-6.2,1-2.1,1.6-3.5,2-4.2,1.4-3,2.4-5.2,3.2-6.6s1.6-2.6,2.4-3.5c.9-.9,1.8-1.3,2.9-1.3s1.2.3,1.6.8c.4.6.6,1.3.6,2.1s-.1,1.3-.3,1.9c-.8,2.3-1.8,4.6-3,7-1.2,2.4-2.6,5.2-4.3,8.4-.2.4-.9,1.8-2.1,4-1.2,2.3-2.2,4.3-2.9,6.1,0,.9.7,2.9,2.1,5.9s3.2,6.6,5.3,10.6l.8,1.5c.4.7,1.1,1.5,2,2.5.9.9,1.6,1.7,2,2.6.4.8.6,2.1.6,3.7s-.2,2.5-.6,3.2h0Z"/>
      </g>
      <g id="Y">
        <path d="M1700,108v108h68v-108h-68ZM1754.4,136.2c-.1.4-.4.8-.6,1.3-.9,1.6-1.6,3.1-2.1,4.4-1.2,2.9-4.2,9.3-8.9,19-3.7,7.8-6.5,13.6-8.3,17.5-1.8,3.9-3.3,7.3-4.4,10.2-.2.7-.5,1.6-1.1,2.7s-1.1,1.6-1.6,1.6-.9-.3-1.6-.8-1.3-1.2-1.8-1.9c-.5-.8-.8-1.5-.8-2.3,0-1.8.5-4,1.4-6.6.9-2.7,2-5.2,3.3-7.5.3-.5.6-1.1.9-1.8s.5-1.1.7-1.3c0-.2,0-.5-.2-.9s-.2-.7-.4-.9c-1-1.5-2.8-4.6-5.4-9.2-2.6-4.6-4.9-9.2-7-13.7s-3.1-7.7-3.1-9.6.3-2.1.9-3,1.2-1.3,2-1.3,1,.2,1.4.5.9,1,1.5,2c.6,1,2.3,4.3,5.1,9.8,1.8,3.5,3.7,7.2,5.6,10.8,1.9,3.7,3.3,6.1,4.2,7.5l4.3-8.7,2.9-6.2c1.7-3.7,3-6.5,4.1-8.7,1.1-2.2,2.2-4,3.4-5.4s2.4-2.2,3.5-2.2,1.3.4,1.7,1.2c.4.8.6,1.8.6,2.9s0,.5-.2.9h0Z"/>
      </g>
      <g id="Z">
        <path d="M1768,108v108h68v-108h-68ZM1822.4,188.9c-.6,1.4-1.5,2.2-2.7,2.2s-1.2,0-1.9-.2c-.8-.1-1.4-.2-1.8-.2-2,0-5.5,0-10.2.3-.7,0-2.3,0-4.9.2s-5,.2-7.3.2-4.8-.2-8.1-.5c-1,0-1.7-.4-2-1.1s-.5-1.8-.5-3.4.4-4,1-6c.7-2,1.7-4,3-6.2,1.8-3.1,3.9-6.5,6.4-10.2,3.1-4.9,5.6-8.9,7.4-12s3.5-6.2,4.9-9.4h-2c-1.7,0-3.7,0-5.8.2-2.2.1-3.5.2-4.1.2-4.2.3-7.1.4-8.7.4s-2.3-.5-3.1-1.6c-.9-1.1-1.3-2.5-1.3-4.1s.4-2.8,1.1-3.6c.7-.9,1.6-1.3,2.7-1.3s2.1,0,4.1.2,3.3.2,4.1.2c1.3,0,3.4,0,6.2,0,2.1,0,4.4-.2,6.6-.2s5.3.1,7.9.3c.6,0,1.1.6,1.3,1.6.3,1,.4,2.1.4,3.3s-1.2,4.2-3.5,8.6c-2.4,4.4-5,9-8,13.8s-5.4,8.6-7.1,11.2c-.8,1.2-1.8,2.9-3.1,5-1.2,2.1-2.1,3.7-2.6,4.8h13.7c1.9,0,3.2,0,4.1,0h4.2c.6,0,1.1-.1,1.7-.3.5-.2,1.2-.5,2-.8s1.4-.6,1.8-.8.8-.2,1.3-.2c1.3,0,2.2.5,2.8,1.3.6.9.9,2.1.9,3.5s-.3,3.3-1,4.7h0Z"/>
      </g>
    </g>
  </g>
</svg>