<?xml version="1.0" encoding="UTF-8"?>
<svg id="Icon" xmlns="http://www.w3.org/2000/svg" version="1.1" viewBox="0 0 1499.9 1200">
  <!-- Generator: Adobe Illustrator 29.0.1, SVG Export Plug-In . SVG Version: 2.1.0 Build 192)  -->
  <defs>
    <style>
      .st0 {
        fill: #38536b;
      }
    </style>
  </defs>
  <path class="st0" d="M150,450c0,27.6-22.4,50-50,50h-50c-27.6,0-50-22.4-50-50V50C0,22.4,22.4,0,50,0h400c27.6,0,50,22.4,50,50v50c0,27.6-22.4,50-50,50H150v300ZM1349.9,450c0,27.6,22.4,50,50,50h50c27.6,0,50-22.4,50-50V50c0-27.6-22.4-50-50-50h-400c-27.6,0-50,22.4-50,50v50c0,27.6,22.4,50,50,50h300v300ZM150,750c0-27.6-22.4-50-50-50h-50c-27.6,0-50,22.4-50,50v400c0,27.6,22.4,50,50,50h400c27.6,0,50-22.4,50-50v-50c0-27.6-22.4-50-50-50H150v-300ZM1349.9,1050h-300c-27.6,0-50,22.4-50,50v50c0,27.6,22.4,50,50,50h400c27.6,0,50-22.4,50-50v-400c0-27.6-22.4-50-50-50h-50c-27.6,0-50,22.4-50,50v300ZM1200,350c0-27.6-22.4-50-50-50H350c-27.6,0-50,22.4-50,50v500c0,27.6,22.4,50,50,50h800c27.6,0,50-22.4,50-50v-500Z"/>
</svg>