<?xml version="1.0" encoding="UTF-8"?>
<svg id="Layer_1" xmlns="http://www.w3.org/2000/svg" version="1.1" viewBox="0 0 640.7 360.5">
  <!-- Generator: Adobe Illustrator 29.0.1, SVG Export Plug-In . SVG Version: 2.1.0 Build 192)  -->
  <defs>
    <style>
      .st0 {
        fill: #0000ff;
      }
    </style>
  </defs>
  <path class="st0" d="M403.7,260.6l-.7-141.5h0c0-2.6-1.2-5.1-3.3-6.7-2.1-1.6-4.8-2.1-7.3-1.5l-147.3,38.9c-3.7,1-6.3,4.3-6.3,8.2v119.7c-8.3-6.6-18.9-10.5-30.5-10.5-26.6,0-48.2,20.9-48.2,46.7s21.6,46.7,48.2,46.7,48.2-20.9,48.2-46.7-.3-5.6-.8-8.3v-141l130.4-34.5.5,102.4c-8.3-6.5-18.9-10.5-30.4-10.5-26.6,0-48.2,20.9-48.2,46.7s21.6,46.7,48.2,46.7,48.2-20.9,48.2-46.7-.3-5.5-.8-8.1ZM189.6,113.9v-.2c9.5,13.7,14.2,32.6,2.8,46.5-6.9,8.5-16.9,14.8-22.4,24.7-1.3,2.4,2.1,4.4,3.6,2.2,1.9-2.9,4.3-5.5,6.9-7.9,8.4-7.6,18.9-13.8,23.6-24.8,10-23-3.9-48-19.3-65-5-5.6-11.2-10.7-16.8-15.5-5.4-4.7-9.7-9.2-11.4-14.2-1.7-4.8-1.5-10.5-.3-16.5v-.4c0-.3,0-.6.2-.9,1-10.6-13.9-13.2-16.6-2.9,0,0-21.6,93.6-32.9,142.8-7.8-9.6-19.2-17.9-32.6-23.5-31.7-13.4-63.4-7.6-72.2,13.2-4.5,10.7-2.2,23.1,6.6,35,7.8,10.6,20,19.8,34.4,25.9,11.5,4.9,23.1,7.2,33.5,7.2,18.3,0,33.1-7.2,38.7-20.4.9-2.1,1.5-4.3,1.9-6.6l31.6-137.1c.4.5.8.9,1.3,1.4,5.6,5.8,12,9.7,18,14.4,8.2,6.4,15.6,14,21.4,22.6ZM638.6,138.7v.2c-8.9-20.8-40.5-26.5-72.3-13.2-13.3,5.6-24.8,13.9-32.6,23.5-11.3-49.1-32.9-142.8-32.9-142.8-2.8-10.3-17.6-7.7-16.6,3,0,.3,0,.6.2.8v.4c2.7,13.8-.2,21.2-11.6,30.7-17.8,14.5-34.6,33.1-38.8,56.5-2.1,11.9,1,25.2,9.5,34,7.5,8.2,17.6,13.3,23.8,22.6.6.9,1.8,1.2,2.8.7,1-.6,1.3-1.9.8-2.9-1.9-3.4-4.4-6.5-7-9.2-5-5.3-10.9-9.9-15.4-15.5-6.5-7.8-8.1-18.4-5.7-28,4.3-16.6,16.6-30.5,29.9-41,6.4-5,13.7-9.6,19.3-15.8l31.6,137.1c.4,2.3,1,4.5,1.9,6.6,5.6,13.2,20.4,20.4,38.7,20.4s21.9-2.3,33.5-7.2c14.4-6.1,26.7-15.3,34.4-25.9,8.7-11.9,11-24.3,6.5-35Z"/>
</svg>